/* XPM */
static char *b09308eaa87d468b84907340739d7f8fcR3zpOyfv0MsqbE8[] = {
/* columns rows colors chars-per-pixel */
"64 64 207 2 ",
"   c #B47F5B",
".  c #B27F60",
"X  c #B3825D",
"o  c #BA855D",
"O  c #B68B5E",
"+  c #BB895F",
"@  c #B48156",
"#  c #B5935D",
"$  c #BA945C",
"%  c #BE9A5D",
"&  c #BA9153",
"*  c #AE8764",
"=  c #A28A64",
"-  c #B58562",
";  c #BA8664",
":  c #B68A66",
">  c #BC8B65",
",  c #B3866A",
"<  c #B58B6C",
"1  c #BB8D6B",
"2  c #B9876C",
"3  c #AE936E",
"4  c #BB9562",
"5  c #B79967",
"6  c #BC9B65",
"7  c #B4946E",
"8  c #BD916D",
"9  c #BC9C6B",
"0  c #B58C72",
"q  c #BB8E73",
"w  c #B18E78",
"e  c #B88F79",
"r  c #AD947D",
"t  c #B69474",
"y  c #BC9373",
"u  c #B49A72",
"i  c #BD9B74",
"p  c #B6957B",
"a  c #BC957B",
"s  c #B69D7C",
"d  c #BD9A7C",
"f  c #BFA067",
"g  c #BEA16D",
"h  c #BEA274",
"j  c #BCA27B",
"k  c #BFA87F",
"l  c #B4A177",
"z  c #C28C5E",
"x  c #C39B5C",
"c  c #C28D64",
"v  c #C18E6A",
"b  c #C29364",
"n  c #C29D64",
"m  c #C99D60",
"M  c #C3936C",
"N  c #C19E6B",
"B  c #C89F6B",
"V  c #C8946D",
"C  c #C29574",
"Z  c #C39A74",
"A  c #C99B74",
"S  c #C1967A",
"D  c #C39B7B",
"F  c #C99D7B",
"G  c #C99570",
"H  c #C4A165",
"J  c #C9A364",
"K  c #C3A36D",
"L  c #C9A56B",
"P  c #C7A96D",
"I  c #CAA96D",
"U  c #C3A473",
"Y  c #C9A672",
"T  c #C6A975",
"R  c #CAAA74",
"E  c #C3A57A",
"W  c #CBA27D",
"Q  c #C5AA7C",
"!  c #CAAC7B",
"~  c #C7B07E",
"^  c #CBB17D",
"/  c #AE9483",
"(  c #AD9B8B",
")  c #B49581",
"_  c #BC9682",
"`  c #B59A84",
"'  c #BC9B83",
"]  c #B59D8B",
"[  c #BB9E8A",
"{  c #AE9C92",
"}  c #B39F90",
"|  c #BA9F92",
" . c #BDA485",
".. c #BFA982",
"X. c #B5A28D",
"o. c #BDA28C",
"O. c #BCAB8D",
"+. c #B6A383",
"@. c #B6A293",
"#. c #BCA493",
"$. c #BDAA94",
"%. c #B7A79C",
"&. c #BBA69A",
"*. c #B6A99C",
"=. c #BCAB9B",
"-. c #B4A892",
";. c #BFB194",
":. c #BEB29C",
">. c #BDADA1",
",. c #BDB3A4",
"<. c #BDB4AC",
"1. c #BFB9AD",
"2. c #BFB7B4",
"3. c #BFBAB4",
"4. c #BEBDBA",
"5. c #C19681",
"6. c #C29D82",
"7. c #C99E84",
"8. c #C29D89",
"9. c #C4A284",
"0. c #CAA384",
"q. c #C4AB83",
"w. c #CAAD83",
"e. c #C4A38B",
"r. c #CAA58A",
"t. c #C4AC8C",
"y. c #CBAB8B",
"u. c #C7B185",
"i. c #CBB285",
"p. c #C5B18C",
"a. c #CAB38B",
"s. c #C7B88F",
"d. c #CDB98D",
"f. c #D1B58D",
"g. c #D4B98E",
"h. c #C3A592",
"j. c #C3AA94",
"k. c #CAAB94",
"l. c #C5A598",
"z. c #C3AC9B",
"x. c #CAAE9A",
"c. c #C4B393",
"v. c #CAB494",
"b. c #C7B896",
"n. c #CCB994",
"m. c #C4B49B",
"M. c #CBB39A",
"N. c #C6BA9C",
"B. c #CBBA9B",
"V. c #D1BC96",
"C. c #D1BE9E",
"Z. c #C3AEA2",
"A. c #C3B3A3",
"S. c #CBB5A3",
"D. c #C5BAA4",
"F. c #CBBCA3",
"G. c #C3B5AB",
"H. c #CBB6AA",
"J. c #C5BBAC",
"K. c #CBBCAB",
"L. c #D1B7A6",
"P. c #D1BFA7",
"I. c #D0BDAD",
"U. c #C1B7B3",
"Y. c #C4BBB3",
"T. c #CABDB3",
"R. c #C4BEBA",
"E. c #C8BFBA",
"W. c #CFC1A7",
"Q. c #C7C0AD",
"!. c #CDC1AC",
"~. c #D2C3AC",
"^. c #C6C0B3",
"/. c #CFC3B2",
"(. c #CCC3B4",
"). c #C6C2BD",
"_. c #CBC4BB",
"`. c #CEC9BC",
"'. c #D2C5B3",
"]. c #D2C9B4",
"[. c #D1C4BA",
"{. c #D3CABB",
"}. c #BFC1C0",
"|. c #C5C5C4",
" X c #CBC6C2",
".X c #C6C8C6",
"XX c #CCC9C5",
"oX c #C5C6CA",
"OX c #C9C7CA",
"+X c #C6CACC",
"@X c #CBCCCD",
"#X c #D2CBC5",
"$X c #D8CFC0",
"%X c #D2CDCB",
"&X c #CED0CD",
"*X c #D3D1CE",
"=X c #D8D0CD",
"-X c #C7CFD2",
";X c #CBCED2",
":X c #CBCFD8",
">X c #D0CFD4",
",X c #CDD1D4",
"<X c #CED4D9",
"1X c #D2D3D4",
"2X c #D2D5DA",
"3X c #D3D8DC",
"4X c #D5DCE2",
/* pixels */
"'.Q P ! a.R J q.H.0.0.r.r.k.0.H.~.0.0.y.w.0.W M.q.J R ! R I I B.].U T ^ a.Y J q.F.F e.e.9.9.o.T.[.r.y.v.r.y.y.F.y.R q.p.q.U K B.",
"Y 6 H ^ n.! N {.7.V F F M 1 F x.x.Z W A F A Z e.`.K Y B.R R R Y Y 6 P R n.! H #X6.v D y y y y =.j.A E Z D F Z e._.g 9.F.~ Q K ! ",
"R Q K q.u.U XX3Xr.V A S V F A l.F.A Z 0.W F F 0.1X XI i.! Y ! Y ! T H u.Q Q @X3X9.M D _ a S a l.A.E S F D 9.8.[ @X XQ a.c.Q Q ~ ",
"q.K a.K n L !.3X0.M S A A 0.S k.F.0.r.F E 7.d 7.,X'.L I m u.U U u.K c.H H H /.<X7.M 5.' 6._ S #.z.0.e.D 9.e.9.e.@X_.w.! U v.! Q ",
"T b.q.H P H (.2XF c 1 7.S D v k.S.9.k.E 0.e.F 9.1X`.L P L w.n.q.U b.q.H R n _.1XF 1 ' 8.e.6.8 o.j.0.e.E e.9.0.e.1X`.E ! ! a.B.u.",
"H ! s U 6 O.@X1Xr.y C F S A A h.M.W F e.0.A S 0.>X;XJ.T U q.P H J T j 9 9 c.;X1X0.Z y 6.6.D M j.z.E 7.e.e.D C h.,X1X<.j j 9.U H ",
"H % |.@X.X,X1X1X9.z c z y Z V 9.j.b A C M G V Z 1X1X2X%X@X>XU L H 6 XX@X X1X1X1X6.v 8 1 C D C h.m.9 Z D C S v a @X1X1X@X X,Xj H ",
"j D.&X*X*X#X#X1XT.' [ e.z.e.o.K.T.] ' ' e.9.9.A.1XXX XXX#X%X_.t.k J.%X*X*X#X#X1XG.` ' ] z.j.o.J.G.` [ _ [ ` ' >.1X%X*X*X*X*X_. .",
" Xk.Q 0.0.F Z 0.1X1X2X1Xg.I g.*X3X].w.a.&X,X&X<Xx.A A A G G S x. Xr.0.W W F Z y.1X,X;X*Xd.^ v.&X;X'.u.B.&X;X@X<XH.7.e.D F A 7.k.",
"H.V S V M b 8 D XX*X2Xb.x I I W.#XR R J w.2X*X1Xl.G b b b c M e.H.M F V M b M Z XX@X>Xb.4 U T D._.U ! K b.;XXX1Xj.0 , S C 2 G S ",
"K.C F M b > 8 D XX&X1Xm.H ! m i.T.R ! P v.1X1X1X0.z v c C C C j.K.C D M M > 8 D @X1X2Xb.K E N c.J.K E E m.1X1X,Xj.q a e S S D 9.",
"T.D y M y M M C _.! R E Y Q i.a.F.f.a.R a.i.^ #X7.c V v S C A j.Y.y i y y 8 M D _.! i.y.U U q.t.S.c.c.E M.v.d.#Xe.c S 6.5.S 6.9.",
"G.S C D 8 D 1 S a.H K K n w.n.F.(.B.B.n I I H Q 6.C v M C C q h.G.S a Z 1 D 1 d a.H 9 H 4 E n.m.T.b.N.Z ! Q K w.h.S q _ 5.S 7.o.",
"G.h.9.D S 8 8 9.m.K ! ! B.! Y p.!.! ! F.^ J Y Z a v v v C D q h.T.e.6.A Z y 8 e.j.Y ! T m.j L b.!.E Q N.q.K R N 5.5.q q S 5.y [ ",
"A.a a y 1 y y y E...6 Z a.U N 9.(.n Q n.K J N D.h.1 c v > v y h.A.a a y 1 y 8 d ).j 4 N u.U $ $.J.6 h p.E N 4 c.h.2 , 0 q 1 ; ' ",
"XXG.,.:.@.} @.G.@X;X2.m.D.J.D.`.%XJ.Q.J.m.J. X;X XY.T.H.=.@.Z. XXXG.G.>.@.@.@.G.;X@XY.A.D.<.D.E. X:.G.D.:.D.).;X|.G.G.Z.%.} >._.",
"E.r.8.7.h.7.8.x.@X!.i.w.n.V.w.F.~.W a.B.w.i.v.;XS.W t.0.E t.9.A.[.7.r.8.e.e.6.Z.@XW.a.9.k.b.w.F.G.E B.B.a.a.F.>XF.y.M.x.x.z.M.H.",
"Z.v v 2 C S q a m.U K i N.Q L y.F.n E b.! x n b.y.Z D 8 Z C M j.Z.; v > C S q p m.K n 9 c.U % q.m.n U b.Q x L m.e.G 9.D Z C y 9.",
"S.C q q C D q p j K U K 8 E Q b.^.s.p.Z Y Y Y q.j.E 6.E D 9.y z.H.e C y C D v ' j K U 6 9 U K c.J.Q q.N T U K k j.D e.6.' 6.D e.",
"l.S S v y a C d =.$ 6 u 4 N j.$.m.O.m.K U U n D.z.M 7.e.9.6.y z.Z.C S 1 y S 8 ' =.$ # 9 $ 9 $.c.D.c.c.b 5 U % j.$.C E e.9.6.6.e.",
"Z.C C > 1 y 1 1 |.,.&.-.U 6 $ O.:.% 9 j $.<.J.+Xh.8 d Z 6.6.t z.S.v C 2 y C 1 t oX=.@.,.U 6 # $.;.$ H h j.:.D.1Xj.8 i F a [ D [ ",
"Z.S q > 1 v 1 1 |.@X:Xt.x U n ,.J.n K 9  .oX|.@Xe.C D y D 6.d z.Z.C v > 1 M 1 8 |.@X,Xp.f h % ,.,.n f K t.<X>X;Xe.8 y M D 6.6.o.",
"l.o o : o o > 1 |.+X;XD.$ 9 6 1.}.h h 5 =.@X@X+X#.q y > 1 y > A.z.  ; ; ; o > a XX+X-X=.# 5 O U.4.6 f 5 $.@X.X,Xe.v y o : C y [ ",
"_.[ ` o.o.[ ' =.;X[._._.-.u %.+X|.J. .=._. X X@XR.#.$.&.#.=.A.U.Y.[ [ 8.` ` ' =.@X X_.|.X.r *.@X@XQ.3 X.XXXXXX,XY.` ` ] ' [ #.J.",
"T K.1X,X2X;X@X,Xx.M Z Z 9.D Z M.A.F e.7.7.C V e.%X:X@X-X:X-Xm.5 U ~.1X,X<X&X-X,Xj.8 D d e.a y Z.Z.D ' ' 6.C C z.1X;X;X:X-X,X].^ ",
"U n F.`.W.#X%X;X .8 y 8 D Z F e.o.C i F D C 8 D |.@X+XJ.J.J.4 K R n K.(.!.#X@X@Xd > y 7 p 0 t ` ) : y a a t 1 D XX@X1X'.(.XXI L ",
"U j U K J U  X;Xj.Z y 8 C Z Z e.j.M C C D M b y  X+Xv.K K U t.h A h Q L H U XX;Xj.8 8 y a d q ] ] 1 < q _ a y d +X;XB.L U U y.U ",
"E b.c.U K N c.:Xe.y i O M W N r.x.M 6.Z C G 1 y +X XK U n t.O...9.b.c.U K H m.,Xo.t i : 8 a : [ &.1 a q y 1 y y  X XK K n t.c.u.",
"K U E 6 i U J.,X .y y N C Z y d l.M 6.q > Z y a XX@Xj K N h E U U T h 9 U g Q.,X' y 1 > M a 1 ` #., p q t q < p  X.Xj K 4 E h h ",
"U T 9 k m.Q F.,Xe.8 8 y C y 8  .$.> a y 1 C C t @XT.h O.t.N h U U T 9 q.c.9.K.,X9.1 > y < t t ] X.- 0 1 : t a p +XXXq.p.p.H h Q ",
"6 N T U p.u.n b.#.X > : : o - d z.@ : : : > > ' D.H U j 5 h U 5 5 U h T p.t.x N.[ X : > - , - p @.  * , - - : p T.6 U t.K T g K ",
"Y.h U q.h N N 9 U.&.$.%.%.%.@.Y.|.%.%.A.*.%.=.3.E N 4 O i 6 g 2.R.K U Q h f K g <.] X.X.#.@.] <.2.] } @.X.] ] 2.q.6 K i Q h T ,.",
"~.q.Q q.p.j K  .G.l.l.l.l.l.e.T.T.e.e.j.h.e._ z.E x 9 j g 9 i b.'.E Q q.j.E 9 O.>.a 8.' [ _ _ Z.>.[ d 9.o.h.e.&.+.9 h O.E Q E v.",
"U U Q Q N...i |.l.2 _ _ e q v [ Z.8 8 1 C 1 : _ R.6 9 b.K Z 5 6 K U Q Q N.q.i |.[   < 0 0 q , [ %.1 t : q e < p 4.s 9 N.q.Q Q U ",
"R q.! q.q.9. X<Xl.e 5.a S a y #.A.8 y 6.q a t a +X}.9 j k 9 i 6 Q q.Q q.q.q.+X,X[ - 2 2 . 0 0 | >.7 t a p p a _ |.}.j t.t.j q.U ",
"r.E c.U U Q J.,X| C 5._ 5._ q X.z.' o.p w p t a oXG.6 6 & j N U q.Q N.U U U T.;X_ . , q w e 0 [ =.a d y p p p p |.Y.U E 6 c.q.q.",
"K N.u.K K 9 ).1X8.2 _ _ _ a 1 [ =.d ' d a _ a a oX).4 n 4 U ;.h N N.q.K U i ).1X_ - 0 e q 0 2 o.=.t p 8 s p e ` |.|.i h U E m.q.",
"K U  ...9 $.,X;Xl._ _ _ a a a 8.%.y t D y 2 1 ' oX+X,.5 i j n 6 K R  .k 5 z.1X;Xo.0 0 0 0 1 : ` z.q a p a e q _ |.+X1.u u  .i H ",
"H N |.,X;X2X@X;Xo.1 v ; 0 a 1 [ z.: 8 1 ; 2 : q |.XX-XoXoX+X9 n H U .X,X@X,X@X-X'   -   0 , . ) o.o 0 : ; 2 : w .X@X@XoX|.-Xo.f ",
"O.J.%X%X%XXX@X%XR.@.| | @.] ] U.Y.p ) p ] ' _ { |.|.|.XX XXX^.+. .Y.%X%X%X%X%X@XY.} ( { =.] ( <.<./ ) / ( / / >.+X). XXXXXXXR.O.",
"T.e.6.6.e.e.7.l.1X1X,X@Xn.q.b.,X:XJ.q.c. X;X-X}.e.S 6.S G 8 y A.).e.' 6.e.8.7.j.:X;X,X`.u.q.F.@X+XJ.q.b.+X}.oX;Xj.< _ 5.C 5.q #.",
"A.0 ' a a D a _ @X@X1Xv.H T T J._.U h n v.oX|.@X6.8 1 v + > o 9.A.8 d d C 6.a ' XX|.@XO.9 k U Q._.H 9 n j.}.|.|.o.1 q 1 < q a a ",
"D.S d 6.C C p e.*X&X,Xm.U T n c.D.N U h $.@XoXoXy ; v c c > > $.G.C ' ' S S a h.;XXX+XO.h E N c.D.9 U h $.&X@X;X6.c 1 1 t a a e.",
"G.a D i a 6.t e.XXQ q.t.i Q t.$.m.c. .9 q.f.a.).e   c 1 1 1 > j.G.Z D d d 5.y e.(.U ! q.9 Q t.-.m.c.t.U b.c.f.XX[ : : q C q _ #.",
"G.y d S a 6.t 6.c.L 9 H 6 t.b.:.,.;.O.* 9 6 H  .S 1 ; : : 8 1 l.G.y ' d t 5.y [ t.H g H 6 e.p.;.J.v.c.N Q U K q.[ 1 8 0 e a 5.h.",
"H.e.9.8.6.d 6.[ O.H R Q A.j U b.,.h k D.U 6 K N C > > v M a 1 j.K.e.9.6.8.D D X.O.K T 0.D.t.U N.D.U Q D...U E j 8.a y a a a 0 h.",
"z.d s d y a y ' ^.= $ 9 O.g % p.J.6 h O.u # $ :.a o ; 1 o o o =.Z.t d a y C y ' ).7 $ u l j 5 O.,.5 h c.d h 5 A.#.2 . , 2 < < o.",
").A.G.G.z.=.Z.Y.,X;XY.>.,.D.J. XXXD.D.:.( ,.R.;XE.A.%.Z.#.] $.|.|.A.D.G.,.>.Z.Y.;X+XY.:.<.,.J.).|.,.,.,.=.,.E.;X X<.>.>.@.>.Z.).",
"T.r.r.y.k.k.y.H.1X~.V.f.C.n.^ F.K.^ a.b.! i.P.@Xm.w.x.y.r.e.9.Q.T.7.r.r.k.y.y.H.1XB.u.w.v.n.i.F.F.! n.b.a.V.B.1XF.y.v.M.v.M.x.T.",
"l.v G q D p S 9.B.I P T F.w.H u.D.P T B.U m H N.9.M t F N C > j.Z.v C y S a D e.N.H K j D.q.K j.D.U j N.h 6 K F.e.y d D A y C h.",
"Z.S C S y D d j.y.R ^ K A q.! n.].u.y.n U U L q.r.C d i Z 6.8 z.Z.C e S S 6.C j...U ~ U N q...D.Q.c.t.i U U f ..j.Z 9. .[ 6.D h.",
"h.a q S D d y e.J.n P Q U t.N.D.W.B.p.x H H n F.t.b Z C i 6.1 j.l.S q C D p C j.D.6 i j i q.b.=.D.D.m.i l h # =.j.8 i  . .6.' h.",
"Z.S a v D 8 c Z ;XD.m.~.i.! K H.B.L Y Q m.A.Y.,X9.+ i C Z d > z.Z.5.a v Z 8 8 i ;X,.:.D.k h N D.m.N U t.:.=.,.@X .> t i 6.o.d z.",
"z._ C v C M 8 t XX2X4XV.R w.L !.K.R Q U p.,X@X>Xi b Z 8 D D d z.Z.5.C v M M c a +X+X,Xq.h Q K 1.D.K Q k :.,X+X+X' : 1 8 D d 6.#.",
"l.1 v c c c c d ;X1X2XF.K P U XX@X! R U J.1X@X1XD z 1 o 8 8 1 Z.z.; 1 c z c c D >X@X:X:.6 h 3 3.4.l k l *.@X+X@Xt : 1 : > y 1 o.",
"Y.@.] [ ` e.e.G.1X%X#X=XF.t.T.2X1X(.j =.*X%X#X1XY. .o.e. .#.$._.T.[ ] [ [ #.e.H.1X#XXX#Xm.` <.1X@X>.r :.XXXXXX*XJ.` ] ` ` [ =.T.",
"a.!.2X3X3X1X2X3XL.A 7.r.M.r.W H.L.0.r.r.r.C M M.2X,X,X:X<X<XW.! a.'.1X3X3X,X2X3Xx.Z F 9.k.9.S L.H.D 8.6.e.6.M j.,X;X,X,X-X,X].u.",
"T L '.$X'.=X1X1Xr.C 0.D r.7.A j.t.C D 7.6.A M e.@X@X*X!.'.Q.n H T L {.{.'.=X1X1X7.i a d r.d t j.j.D ' d 6.y y [ @X@X+X].`.(.P K ",
"K a.a.! T Q #X1Xe.D 9.E 9.9.C j.k.M 7.6.' C y p @X,Xn.H H 9 a.K K a.i.! K Q =X1Xe.i i 9.e.' a j.l.y S 6.' S d e.@X1XF.R R w.a.R ",
"u.N.n.R ! U F.3Xe.0.9.M F 9.V M.x.S 6.D C D D a ;X(.H L H b.p.Q q.F.n.! Q P K.2Xe.9.6.y a d 8 -.$.8 [ y y y Z d 1XXXY ! U m.n.p.",
"Q q.! N ^ ! `.1X0.F Z Z F 7.F j.x.V 6.F A C D e.&X+XK L K ! K K Q Q Q H u.^ XX*X9.6.y y d ' 8 #.l.q ' S D D d [ +X).U Q ! q.Q Q ",
"R T T u.N.a.].2X9.C Z F r.0.W M.v.b 7.S S S a e.2X{.Q v.a.K P L T Q T p.N.i.{.1X9.S d i d 9.9.x.$.y 6.S y i y ' ,XXXt.c.a.K ! ! ",
"U T ! T s.a.J ~.e.M C G G S M t.z.c M C M M 1 e.'.I R i.P ! Y K K ! ! T s.a.L !.e.: 7 i y i 1 @.=.1 a 1 8 > 8 [ ].P ! b.T Q g 9 ",
"U.T T R U Y R Q _.l.x.z.D.%.l._. Xx.S.H.#.h.Z./.^ R J x Y Y U J.Y.U T T P R Y ! R.l.=.=.z.=.] U.E.{ @.=.$.X.j.T.a.R U h T U h D."
};
