/* XPM */
static char *a5682286c9a1460aa6ffbfd89be1cce6pZ9LowagvVy4mejP[] = {
/* columns rows colors chars-per-pixel */
"64 64 197 2 ",
"   c #7F7766",
".  c #817A69",
"X  c #7E7665",
"o  c #827B6A",
"O  c #807867",
"+  c #7D7564",
"@  c #817968",
"#  c #807967",
"$  c #7D7563",
"%  c #827A69",
"&  c #7F7867",
"*  c #7C7563",
"=  c #857E6D",
"-  c #908876",
";  c #908976",
":  c #867F6D",
">  c #837B6B",
",  c #9A9485",
"<  c #9E9888",
"1  c #8D8777",
"2  c #8E8775",
"3  c #8A8372",
"4  c #958F7F",
"5  c #7F7866",
"6  c #918B7B",
"7  c #989282",
"8  c #807968",
"9  c #888170",
"0  c #8D8572",
"q  c #968F80",
"w  c #948E7E",
"e  c #928A76",
"r  c #938B77",
"t  c #867F6E",
"y  c #837C6B",
"u  c #A09A8A",
"i  c #A49E8E",
"p  c #908979",
"a  c #908875",
"s  c #8C8472",
"d  c #999383",
"f  c #958E7E",
"g  c #9D9787",
"h  c #898270",
"j  c #8F8773",
"k  c #9A9484",
"l  c #928B77",
"z  c #9A9384",
"x  c #928A77",
"c  c #9F9989",
"v  c #A39D8D",
"b  c #8C8573",
"n  c #999283",
"m  c #A39D8E",
"M  c #9C9687",
"N  c #999384",
"B  c #8A8373",
"V  c #8B8474",
"C  c #8B8574",
"Z  c #7E7765",
"A  c #867E6D",
"S  c #877F6E",
"D  c #847D6C",
"F  c #888171",
"G  c #867F6F",
"H  c #898272",
"J  c #837C6A",
"K  c #857D6C",
"L  c #857E6C",
"P  c #7D7664",
"I  c #847C6B",
"U  c #7E7664",
"Y  c #827A6A",
"T  c #B2AA94",
"R  c #B6AD97",
"E  c #B6AD96",
"W  c #B5AC96",
"Q  c #908977",
"!  c #918976",
"~  c #918A76",
"^  c #928C7C",
"/  c #969080",
"(  c #8B8472",
")  c #8F8775",
"_  c #978F7D",
"`  c #B6AE97",
"'  c #ADA48E",
"]  c #847C6A",
"[  c #979181",
"{  c #958F80",
"}  c #8E8674",
"|  c #BAB19A",
" . c #BEB59D",
".. c #BDB49C",
"X. c #928B78",
"o. c #9A927F",
"O. c #BFB69D",
"+. c #B4AB94",
"@. c #847D6B",
"#. c #B9B099",
"$. c #BCB39C",
"%. c #B3AB93",
"&. c #8D8674",
"*. c #88806F",
"=. c #B4AC96",
"-. c #958E7F",
";. c #837C69",
":. c #958E7B",
">. c #99927F",
",. c #87806F",
"<. c #8D8676",
"1. c #908A79",
"2. c #898372",
"3. c #8B8575",
"4. c #958D7A",
"5. c #7F7765",
"6. c #807868",
"7. c #7C7463",
"8. c #817A68",
"9. c #7C7462",
"0. c #8F8878",
"q. c #9B9380",
"w. c #B1A993",
"e. c #B0A892",
"r. c #B1A892",
"t. c #A69E8A",
"y. c #8F8979",
"u. c #948D7E",
"i. c #A29A86",
"p. c #BFB69E",
"a. c #938D7D",
"s. c #928B7B",
"d. c #938C7C",
"f. c #A49F8F",
"g. c #A59F8F",
"h. c #8A8474",
"j. c #7E7766",
"k. c #938C79",
"l. c #8E8878",
"z. c #8E8774",
"x. c #8A8371",
"c. c #9E9887",
"v. c #8B8372",
"b. c #9E9787",
"n. c #9E9889",
"m. c #8F8876",
"M. c #898271",
"N. c #8E8777",
"B. c #87806E",
"V. c #8C8575",
"C. c #86806F",
"Z. c #8D8776",
"A. c #878170",
"S. c #878070",
"D. c #9F9A8A",
"F. c #8E8673",
"G. c #9D9788",
"H. c #A19B8B",
"J. c #8F8875",
"K. c #8D8673",
"L. c #918A7A",
"P. c #A19B8C",
"I. c #9B9585",
"U. c #837B6A",
"Y. c #857E6E",
"T. c #847C6C",
"R. c #888271",
"E. c #8A8270",
"W. c #9B9586",
"Q. c #A29C8C",
"!. c #AEA691",
"~. c #BCB39B",
"^. c #BBB29B",
"/. c #AAA28D",
"(. c #9C9686",
"). c #807866",
"_. c #A29D8D",
"`. c #ACA48E",
"'. c #BFB59D",
"]. c #ADA58F",
"[. c #948D7D",
"{. c #A19985",
"}. c #A09885",
"|. c #97907D",
" X c #908A7A",
".X c #928B79",
"XX c #ABA38E",
"oX c #A49C87",
"OX c #8B8473",
"+X c #817967",
"@X c #8A8473",
"#X c #9A937F",
"$X c #B4AC94",
"%X c #989182",
"&X c #918A78",
"*X c #A8A08B",
"=X c white",
/* pixels */
"  . . . . . . .   X o o o o o o o O + @ . . . . . . # $ . o o o o o o . $ @ o o o o o o % + & . . . . . . # + . o o o o o o . * ",
"= - ; ; ; ; ; ; : > , < < < < < < 1 O 2 ; ; ; ; ; ; 3 & 4 < < < < < < 4 5 6 < < < < < < 7 8 9 ; ; ; ; ; ; 0 # q < < < < < < w X ",
"= e r r r r r r t y u i i i i i i p O a r r r r r r s & d i i i i i i d   f i i i i i i g @ h r r r r r r j # k i i i i i i 7 X ",
"= e r r r r r l t y u i i i i i i p O a r r r r r r s & d i i i i i i d   w i i i i i i g @ h r r r r r r j # z i i i i i i 7 X ",
"= e r r r r r l t y u i i i i i i p O a r r r r r r s & d i i i i i i d   w i i i i i i g @ h r r r r r r j # z i i i i i i 7 X ",
"= e r r r r r l t y u i i i i i i p O a r r r r r r s & d i i i i i i d   w i i i i i i g @ h r r r r r r j # z i i i i i i 7 X ",
"= e r r r r r l t y u i i i i i i p O a r r r r r r s & d i i i i i i d   w i i i i i i g @ h r r r r r r j # z i i i i i i 7 X ",
"= x r l l l l l t y c v v v v v v p O - r l l l l r b & n i v v v v i n 5 w i v v v v m M @ h r l l l l r j # N i v v v v i 7 X ",
". t t t t t t t % O B V V V V V C = Z A t t t t t S D X F V V V V V V F X G C V V V V C H   J t t t t t t K Z F V V V V V V 9 + ",
"O L A = = = A = # X . . . . . . . O P > y y y y y y . + o y y y y y y o + 8 . . . . . . . P . A = = = = A I U o y y y y y y Y $ ",
"b T R E E E E W Q . - ! ! ! ! ! ~ h @ k u u u u u u ^ 5 / u u u u u u / & ( ~ ! ! ! ! ~ ) & _ R E E E E ` ' ] [ u u u u u u { X ",
"} |  . . . . ...X.. ! r r r r r r h @ g i i i i i i f   d i i i i i i d & s r r r r r r a & o. . . . . .O.+.@.N i i i i i i 7 X ",
"} #. . . . . .$.X.. ! r r r r r r h @ g i i i i i i w   d i i i i i i d & s r r r r r r a & o. . . . . . .%.@.d i i i i i i 7 X ",
"} #. . . . . .$.X.. ! r r r r r r h @ g i i i i i i w   d i i i i i i d & s r r r r r r a & o. . . . . . .%.@.d i i i i i i 7 X ",
"} #. . . . . .$.X.. ! r r r r r r h @ g i i i i i i w   d i i i i i i d & s r r r r r r a & o. . . . . . .%.@.d i i i i i i 7 X ",
"&.#. . . . . .$.X.. ! r r r r r r h @ g i i i i i i w 5 d i i i i i i d & s r r r r r r a & o. . . . . . .%.@.d i i i i i i 7 X ",
"*.=. . . . . ...X.. ~ r r r r r r h @ g i i i i i i -.Z w i i i i i i d & b r r r r r r - & o. . . . . .O.+.;.4 i i i i i i 7 X ",
"8 :.o.o.o.o.o.>.,.O h h h h h h h D 5 <.p p p p p 1.2.$ F p p p p p p 3.Z t h h h h h h 9   ( o.o.o.o.o.o.4.5.F p p p p p p V P ",
"+ 6.8 8 8 8 8 8 Z P @ @ @ @ @ @ @ 5 $ O O O O O O O & 7.& 8 8 8 8 8 8 O $ # % . . . . % 8.+   & & & & & &   9.& 8 8 8 8 8 8 O 7.",
"% 7 g g g g g M H o k g g g g g g <.O } a a a a a - 3 P 0.g g g g g g w   q.w.e.e.e.e.r.t.8.9 - a a a a - 0 U y.g g g g g g u.X ",
"o < i i i i i m V y u i i i i i i p O a r r r r r r b + ^ i i i i i i d   i.p. . . . .p.r.% h r r r r r r j U a.i i i i i i 7 X ",
"o < i i i i i v V y u i i i i i i p O a r r r r r r b + s.i i i i i i d   i. . . . . . .e.. h r r r r r r j U d.i i i i i i 7 X ",
"o < i i i i i v V y u i i i i i i p O a r r r r r r b + s.i i i i i i d   i. . . . . . .e.. h r r r r r r j U d.i i i i i i 7 X ",
"o < i i i i i v V y u i i i i i i p O a r r r r r r b + s.i i i i i i d   i. . . . . . .e.. h r r r r r r j U d.i i i i i i 7 X ",
"o < i i i i i v V y u i i i i i i p O a r r r r r r b + s.i i i i i i d   i. . . . . . .e.. h r r r r r r j U d.i i i i i i 7 X ",
"o < i i i i i i V y u i i i i i i 1.O - r r r r r r b + ^ f.i i i i g.d   i.p. . . . .p.w.% h r r r r r r j U a.g.i i i i g.7 X ",
"@ 6 f w w w w w G . ^ f w w w w f 2.5 3 s s s s s b 9 + h.-.w w w w -.0.j.k.i.i.i.i.i.i.q.# t b s s s s b h U V -.w w w w -.l.U ",
"$ 5           5 X + 5           5 Z $ & & & & & & &   9.j.5             $ j.              $ Z & & & & & &   9.j.5             9.",
". 4 d d d d d n F @ &.z.z.z.z.z.z.,.8 w d d d d d d 0.P 9 z.z.z.z.z.z.(   0.d d d d d d w O 3.d d d d d d w   9 z.z.z.z.z.z.3 X ",
"o < i i i i i i C . ~ r r r r r r h @ g i i i i i g.4 + x.r r r r r r z.  -.g.i i i i i g 8 p i i i i i i c.O ( r r r r r r } X ",
"o < i i i i i v V . ! r r r r r r h @ g i i i i i i f + x.r r r r r r z.  w i i i i i i g 8 p i i i i i i g O v.r r r r r r } X ",
"o < i i i i i v V . ! r r r r r r h @ g i i i i i i f P x.r r r r r r z.  w i i i i i i g 8 p i i i i i i g O v.r r r r r r } X ",
"o < i i i i i v V . ! r r r r r r h @ g i i i i i i 7 X x.r r r r r r z.  w i i i i i i g 8 p i i i i i i g O v.r r r r r r } X ",
"o < i i i i i v V . ! r r r r r r h @ g i i i i i i k X x.r r r r r r z.  w i i i i i i g 8 p i i i i i i g O v.r r r r r r } X ",
"o < i i i i i v V . ! r r r r r r h @ g i i i i i i k X x.r r r r r r z.  f i i i i i i g 8 p i i i i i i b.O v.r r r r r r } X ",
"o k c n.n.n.n.< B . m.! ! ! ! ! ! 9 8 d c n.n.n.n.c / X M.! ! ! ! ! ! &.5 ^ c n.n.n.n.c d 8 N.c n.n.n.n.c d 5 x.! ! ! ! ! ! b X ",
"P Y o o o o o o 5 U @ @ @ @ @ @ @ & + % o o o o o o . 7.O @ @ @ @ @ @ 8 $ 8 o Y Y Y Y Y . + O o o o o o o . * O @ @ @ @ @ @ 8 * ",
"5 B.*.*.*.*.*.*.o # V.<.<.<.<.<.<.t j.S *.*.*.*.*.*.= $ C.Z.<.<.<.<.Z.2.X A.<.<.<.<.<.<.V   y *.*.*.*.*.*.A + S.Z.<.<.<.<.Z.H + ",
". ; r r r r r r S y D.i m m m m i p O - r r r r r r F.P s.i m m m m i d 5 w i m m m m i g @ h r r r r r r j U d.i m m m m i 7 X ",
". ; r r r r r l t y u i i i i i i p O a r r r r r r F.P s.i i i i i i d   w i i i i i i g @ h r r r r r r j U d.i i i i i i 7 X ",
". ; r r r r r l t y u i i i i i i p O a r r r r r r F.P s.i i i i i i d   w i i i i i i g @ h r r r r r r j U d.i i i i i i 7 X ",
". ; r r r r r l t y u i i i i i i p O a r r r r r r F.P s.i i i i i i d   w i i i i i i g @ h r r r r r r j U d.i i i i i i 7 X ",
". ; r r r r r l t y u i i i i i i p O a r r r r r r F.P s.i i i i i i d   w i i i i i i g @ h r r r r r r j U d.i i i i i i 7 X ",
". ; r r r r r r t y u i i i i i i p O a r r r r r r F.P s.i i i i i i d   f i i i i i i g @ h r r r r r r j U d.i i i i i i 7 X ",
". - e e e e e x t y G.H.H.H.H.H.H.0.O J.x e e e e x K.P L.P.H.H.H.H.P.[ 5 a.P.H.H.H.H.H.I.@ h x e e e e x F.U s.P.H.H.H.H.P./ X ",
"X o U.U.U.U.U.J O Z = = = = = = = . U o o o o o o o . $ o Y.Y.Y.Y.Y.Y.T.P U.= = = = = = D U @ J U.U.U.U.J % $ o = = = = = = y $ ",
"  S.R.R.R.R.R.R.Y   9 F F F F F R.y Z ( } } } } } z.E.$ o L L L L L L I U = R.F F F F R.,.X y M.R.R.R.R.M.G + D R.F F F F R.t $ ",
"% W.v Q.Q.Q.Q.Q.V y c v Q.Q.Q.Q.v y.. !.~.^.^.^.^.~./.Z x.l x x x x l z.5 w v Q.Q.Q.Q.v (.8 y.v Q.Q.Q.Q.v (.).L._.Q.Q.Q.Q.v [ X ",
"  7 i i i i i v V y u i i i i i i p 8.e. . . . . .O.`.U B.l r r r r r z.  w i i i i i i g 8 p i i i i i i b.5.V.v i i i i i 7 X ",
"X 7 i i i i i v V y u i i i i i i p 8.e. . . . . .'.`.U t x r r r r r z.  w i i i i i i g 8 p i i i i i i g 5.V v i i i i i 7 X ",
"X 7 i i i i i v V y u i i i i i i p 8.e. . . . . .'.`.U t x r r r r r z.  w i i i i i i g 8 p i i i i i i g 5.V v i i i i i 7 X ",
"X 7 i i i i i v V y u i i i i i i p 8.e. . . . . .'.`.U t x r r r r r z.  w i i i i i i g 8 p i i i i i i g 5.V v i i i i i 7 X ",
"X 7 g.i i i i i V y u i i i i i i p . w.p. . . . .p.].U t r r r r r r z.5 -.g.i i i i i g 8 p i i i i i i c.5.C i i i i i g.7 X ",
"U 1 u.[.[.[.[.a.G . s.[.[.[.[.[.[.H O o.{.}.}.}.}.{.|.$ I ( ( ( ( ( ( h j.V.w [.[.[.[.[. X& H [.[.[.[.[.[.p U G a.[.[.[.[.u.1 U ",
"7.  5 5 5 5 5 & X + & & & & & & & Z $               j.9.X & & & & & & & $   & & & & & & & $ Z & & & & & &   9.X & 5 5 5 5 5   7.",
"X ( ) z.z.z.z.2 = o [ k k k k k k V.# 4 k k k k k k d.$ 9 d k k k k k ^   y.k k k k k k 4 O .XXXXXXXXXXXXXoX).= 2 z.z.z.z.) ( X ",
"X } r r r r r r t y u i i i i i i p 8 g i i i i i g.k $ OXv i i i i g.d   f g.i i i i i g 8 o.p. . . . .p.+.+Xt r r r r r r } X ",
"X } r r r r r l t y u i i i i i i p 8 g i i i i i i k $ @Xv i i i i i d   w i i i i i i g 8 o. . . . . . .+.+Xt l r r r r r } X ",
"X } r r r r r l t y u i i i i i i p 8 g i i i i i i k $ @Xv i i i i i d   w i i i i i i g 8 o. . . . . . .+.+Xt l r r r r r } X ",
"X } r r r r r l t y u i i i i i i p 8 g i i i i i i k $ @Xv i i i i i d   w i i i i i i g 8 o. . . . . . .+.+Xt l r r r r r } X ",
"X } r r r r r l t y u i i i i i i p 8 g i i i i i i k $ @Xv i i i i i d   w i i i i i i g 8 o. . . . . . .+.+Xt l r r r r r } X ",
"X } r r r r r r S y u i i i i i i p 8 g i i i i i g.k $ OXv i i i i g.d 5 -.g.i i i i i g 8 #Xp.'.'.'.'.p.$X+XS r r r r r r } X ",
"X 3 } } } } } } = o { 7 7 7 7 7 7 V O u.7 7 7 7 7 7 6 $ S.%X7 7 7 7 7 6   l.7 7 7 7 7 7 u.& &X*X*X*X*X*X*X{.5.= } } } } } } 3 X ",
"9.X X X X X X X + $ X X X X X X X P 7.X X X X X X X U 9.+ X X X X X X X 9.U X X X X X X X 7.P X X X X X X P 9.+ X X X X X X X 9."
};
