/* XPM */
static char *_f254e368ccb4524b21d0c4f67c56f5eyM29wKMnpa9VbU2v[] = {
/* columns rows colors chars-per-pixel */
"64 64 194 2 ",
"   c #666745",
".  c #676D47",
"X  c #6C6B46",
"o  c #66674D",
"O  c #666C4A",
"+  c #6C6D4C",
"@  c #726D4D",
"#  c #786F4E",
"$  c #6D724D",
"%  c #72724E",
"&  c #7A734F",
"*  c #666850",
"=  c #6D6E51",
"-  c #6D6F59",
";  c #726E52",
":  c #796F55",
">  c #736E59",
",  c #7B6F59",
"<  c #6E7352",
"1  c #6F7956",
"2  c #6D7159",
"3  c #6D7858",
"4  c #737454",
"5  c #7A7455",
"6  c #727956",
"7  c #7B7956",
"8  c #73755A",
"9  c #7C755A",
"0  c #747B5B",
"q  c #7B7A5C",
"w  c #747660",
"e  c #7D7562",
"r  c #767B62",
"t  c #7B7D61",
"y  c #817556",
"u  c #817857",
"i  c #81765B",
"p  c #837A5D",
"a  c #897C5E",
"s  c #837762",
"d  c #857C62",
"f  c #8A7D63",
"g  c #877D69",
"h  c #8C7D69",
"j  c #917F67",
"k  c #76815E",
"l  c #7A825E",
"z  c #768261",
"x  c #7B8564",
"c  c #7C8966",
"v  c #7D8669",
"b  c #7E8A6A",
"n  c #89815D",
"m  c #858265",
"M  c #8C8165",
"N  c #818A67",
"B  c #8D826A",
"V  c #828D6C",
"C  c #918165",
"Z  c #93856C",
"A  c #98866D",
"S  c #96896D",
"D  c #99896E",
"F  c #84916E",
"G  c #88926F",
"H  c #8F8470",
"J  c #858E71",
"K  c #958671",
"L  c #968973",
"P  c #9B8B73",
"I  c #9D8E79",
"U  c #869372",
"Y  c #899574",
"T  c #8C9976",
"R  c #8A967A",
"E  c #8D9B7A",
"W  c #9D9175",
"Q  c #909B77",
"!  c #9D917B",
"~  c #919D7C",
"^  c #A18E74",
"/  c #A08E7A",
"(  c #A29177",
")  c #A3937C",
"_  c #A8977E",
"`  c #A7997E",
"'  c #AB997E",
"]  c #94A17E",
"[  c #98A57F",
"{  c #929E81",
"}  c #A69681",
"|  c #A99782",
" . c #A79983",
".. c #AB9B84",
"X. c #AD9D8A",
"o. c #B19D85",
"O. c #B19F8A",
"+. c #95A382",
"@. c #99A684",
"#. c #9CAA86",
"$. c #96A58A",
"%. c #99A689",
"&. c #9DAC8B",
"*. c #9EB08B",
"=. c #9FAE91",
"-. c #AFA187",
";. c #A1AD86",
":. c #AEA18D",
">. c #A1AE8C",
",. c #B1A187",
"<. c #B3A28C",
"1. c #B9A68C",
"2. c #B6A88E",
"3. c #BBA98E",
"4. c #A1B085",
"5. c #A3B18D",
"6. c #A9B58E",
"7. c #AAB98E",
"8. c #AEA190",
"9. c #A2AE91",
"0. c #B4A592",
"q. c #B8A693",
"w. c #B6A996",
"e. c #BBAB94",
"r. c #B7A798",
"t. c #B7AB9B",
"y. c #BDAD9D",
"u. c #BEAE9F",
"i. c #BCAD9B",
"p. c #A3B190",
"a. c #A6B191",
"s. c #A4B291",
"d. c #A4B193",
"f. c #A6B193",
"g. c #A5B392",
"h. c #A5B591",
"j. c #A7B592",
"k. c #A7B793",
"l. c #A6B691",
"z. c #A4B195",
"x. c #A6B395",
"c. c #A6B397",
"v. c #A5B294",
"b. c #A5B495",
"n. c #A6B594",
"m. c #A7B496",
"M. c #A5B393",
"N. c #A8B393",
"B. c #A9B492",
"V. c #A8B693",
"C. c #AAB595",
"Z. c #A8B597",
"A. c #A9B796",
"S. c #A8B695",
"D. c #A9B693",
"F. c #ACBA96",
"G. c #ABB994",
"H. c #A7B498",
"J. c #A7B599",
"K. c #ABB799",
"L. c #A9B69A",
"P. c #AAB79B",
"I. c #AAB599",
"U. c #A9B699",
"Y. c #ABB998",
"T. c #AAB99A",
"R. c #ACB99B",
"E. c #AEBC9B",
"W. c #AEBB9D",
"Q. c #ACB99F",
"!. c #ACBB9E",
"~. c #ACBA9B",
"^. c #B0BC96",
"/. c #BEB19E",
"(. c #B1BC9A",
"). c #B0BE9D",
"_. c #B1BD9A",
"`. c #BBADA0",
"'. c #AEBCA2",
"]. c #BEB1A0",
"[. c #BEB1A1",
"{. c #C0AD8F",
"}. c #C1AD94",
"|. c #C0AD9C",
" X c #C0AF9B",
".X c #C3B195",
"XX c #C2B19C",
"oX c #C1B1A1",
"OX c #C3B3A3",
"+X c #C4B4A5",
"@X c #C3B3A3",
"#X c #C6B8A3",
"$X c #C7BCAA",
"%X c #B1C097",
/* pixels */
"0.....( 7 $ M ....X.`.......Z 8 ; P ..} ,.y.......n 4 7 ( X.' y.t...X.( p 4 B -.X.-.+X:...X.A 7 8 ^ ' ' 2.y...o._ d 4 p } ..` w.",
") 5 7 @ c R 4 9 4 h t.B 9 8 4 V b 4 5 & ! t.a u 4 8 ~ l 4 q 5 ,...5 7 5 x E 7 9 q B [.L 7 8 8 Y G 8 p u ) e.i q 7 q R 0 4 5 q :.",
") 0 T E &.P.~ T 0 M oXZ 0 E ~ d.p.E Y 6 W y.d V E { Q.&.~ F 8 r.0.5 F ~ &.~.+.] v B +XP k ~ ~ Y.d.] T 6 X.y.i V { +.~.@.T b q w.",
"( 7 &.E.c.c.U.d.k a :.f q d.g.5.;.b.#.2 D 0.q V '.P.c.P.E.T % ..| 4 +.(.A.s.T.~.b d r.L l Y.^.V.g.(.>.8 ^ o.9 T R.g.&.5.Y.U 5 ..",
"p b z.b.H.b.d.d.Y 8 p q U d.5.>.5.5.;.V 8 d l { U.b.U.N.c.&.x 9 p x &.g.g.V.N.S.+.r d t U 6.V.Y.V.g.5.V 7 a t %.V.d.N.>.5.@.k i ",
"0 E J.p.H.c.c.c.;.k X 0 $.U.>.d.g.d.S.+.6 @ V c.c.b.U.U.P.U.T < 1 T S.V.k.~.S.Y.p.x ; z #.Y.V.S.&.6.R.] 0 % V S.N.d.N.S.d.g.V 4 ",
"d q %.T.c.U.c.5.b 9 L 9 x >.6.N.d.Y.&.0 d L 8 U P.N.P.U.P.] 6 B B 7 +.R.V.k.S.Y.U q L d m c.V.V.g.F.;.q M Z 8 Q B.N.b.5.S.E 8 B ",
"} 8 @.Y.S.c.b.5.k M t.C 0 ;.d.>.5.b.#.7 ! t.p V Y.U.U.U.U.E 9 0.<.4 ] F.V.k.k.g.v m +XP q p.F.V.Y.k.#.6 } y.7 U V.V.p.6.V.U 7 2.",
") 4 k 0 E &.x 0 < m `.B 4 l k +.+.k k + P /.p 6 x N p.E k 0 4 0.:.4 k k T s.F x 0 m +XL 8 l b &.#.x l 8 _ y.5 k l V >.U 0 6 5 0.",
"{ i p 5 2 k X 5 5 C t.K 5 # X 0 6 @ 5 5 ! t.d p 5 + k 4 @ 5 9 8.:.9 5 & 6 z $ y u B @XP i u % k k 4 u i } r.d i 5 % z ; & 4 p :.",
"|.q.}.' 5 X Z e.e.e.i.e.r.e.P X % ( y.e.t.`.w.e.q.C X 5 o.}.e.[./.y. XO.9 X S e. XXXoX/.e.}.^ 5 5 ) }.e.y.|.e.e.q.a X p <.y.t.t.",
"X.A D C 4 4 7 L A I t.) A P a 4 < f P S } t.P P D 9 6 4 Z D P 0.2.D P Z 7 6 p S P ) /.` P ( f 0 8 M P P X.y.P P A 5 < 5 A P P 0.",
"/ @ 4 $ b +.1 $ + d y.g o o o R R $ < . P t.9 % % 6 $.V $ 1 % :.X.@ $ $ N @.3 0 6 M /.L % 4 1 E Q 4 0 4 } t.5 = * r $.x < $ % :.",
"/ 4 E %.&.z.%.+.0 d `.g < +.+.=.&.#.E < I oX5 c #.#.b.>.#.U % <.<.% T &.*.k.*.#.x h +XP 0 ] @.5.N.@.~ 6 ..t.5 V #.#.s.%.@.b 8 0.",
"B 4 +.b.9.>.&.5.0 5 ) p 0 &.*.&.&.b.@.$ a } 4 N b.p.c.&.b.T . W I $ ~ Y.5.s.h.h.c q X.M k 5.k.6.5.Y.#.0 K } 7 U A.*.&.p.N.F @ P ",
"4 F p.5.p.z.>.*.] 1 4 1 E p.&.&.p.&.5.U 4 % z %.z.5.c.p.5.5.N 4 5 F 5.5.s.s.p.h.%.k q 0 ~ 5.*.5.g.5.5.Y 6 7 x %.5.*.9.p.>.#.k % ",
"6 V d.9.p.9.&.*.] 1 % 4 R 5.&.=.=.&.p.T 1 % l %.p.p.z.s.p.p.b 4 % V s.*.b.s.p.b.%.x 7 0 ] d.5.5.6.6.d.T 6 4 x &.5.>.p.&.9.&.x $ ",
"M < +.b.5.5.z.p.r 9 } q 1 &.p.&.=.s.@.$ m ( 4 b H.d.p.s.T.E < ! P $ ] Y.b.J.T.T.c e  .h k 5.g.d.5.k.%.1 H ) 4 J V.5.9.*.b.U 4 I ",
") 8 +.&.z.b.&.$.k h [.B r %.%.>.p.%.+.6 ! y.9 V =.&.R.=.&.U 4 0.<.7 ~ 5.s.~.z.&.c H +XK k &.&.N.b.*.] 0 ..y.q Y =.&.b.&.&.F q <.",
"/ 5 6 $ V $.1 $ + B `.B < 1 1 { R $ 1 $ W t.i 0 6 0 $.V < < % 0.<.% 6 1 b %.r 6 1 m oXK 8 6 4 { E 7 0 % ' t.9 7 4 z %.x < < 7 8.",
" .A D a 4 0 7 C A ( t.) Z Z u 8 6 p Z Z ..[.L S Z 5 0 7 M D D t.0.D S C 5 k 9 S P ! +X} D D p 0 0 M ^ D <.e.D Z j 7 7 8 C Z D w.",
"[.XX.XO.5 % P y.y.t.t.y.e.}.^ @ 4 } /.i./.[.y.y.e.C X a 1.|.XX@XXX/..XO.p % W .X/.oX+X[.y.XX( 7 7 X.XX}.oXOXy.XX2.C X f w. Xy./.",
"} d a 5 q x 5 f d B t.K f f 9 x 6 i n a ! i.M n a 7 b 0 p a i :.,.p a p q b q h m K [.P h f i x x p a a ) e.h f p 9 N 8 p p f :.",
") 7 c x +.z.N x 0 B |.B 0 x v &.$.x z $ I i.a l c F g.~ c z 5 0.,.7 l x ~ c.V b z B OXP 6 N V &.%.N V 8 ..e.q t N Y d.Y z k 7 0.",
") q %.~.c.c.c.9.0 h i.B q c.9.d.>.N.%.4 I i.d F R.b.N.P.J.E 4 0.<.7 ~ E.~.S.S.b.V h OXP x b.F.V.k.E.&.6 } q.i R R.z.N.5.S.G 5 0.",
"M k %.T.c.c.c.>.c 7 A 9 x 9.d.>.9.5.>.0 p P q Y ~.S.J.J.H.+.0 M B 6 #.k.p.S.S.S.Y q L d N g.b.S.V.Y.&.q m Z 9 ~ S.5.5.>.N.~ 4 C ",
"0 E ~.p.U.c.c.N.>.k X k @.c.>.a.d.d.S.{ 0 + J c.c.c.P.U.A.R.T < 4 R F.V.S.S.S.K.c.v = z @.F.V.S.>.V.Y.] 7 < V K.g.9.N.d.d.S.J < ",
"q v =.H.S.N.N.d.Y 6 u 8 Y N.>.N.d.N.d.N q e q ~ U.c.U.U.A.%.x q t x #.S.S.Y.g.Y.{ r d 0 Y V.V.S.>.k.5.V q p q @.S.6.N.c.S.+.q q ",
"I 6 %.E.U.S.U.N.k f 8.h 6 9.N.5.5.F.&.6 P 0.q V R.K.U.U.(.~ 8 ..' 4 ] ).V.V.R.F.c d t.L k V.^.g.F.(.;.8 ( <.q U R.G.5.g.R.Y 7 ..",
"` 8 T ~ &.Q.~ Q z Z OXK 6 ~ Q N.5.~ Y 7 } [.p c ] ] Q.9.~ F q t.0.9 Y Q ;.E.] Q x B $XP q ~ ] Y.V.~ Q q X.|.q V ] +.~.#.Q V 9 t.",
") 5 4 X x R 4 @ ; M /.Z 5 % ; U V 4 4 @ I t.p 4 @ 4 T x @ 4 9 w.<.7 8 @ x T 6 ; ; h +XK 7 5 4 Y U 8 7 ; ..t.y 4 % 7 E q 4 4 7 0.",
"w.-.O./ 5 7 B X.,.0.[.<...o.Z 4 9 P ,.X.w./.8.-...M 7 p ) 2.,.XXy.-.,._ p 4 Z <.,.q.#Xe.,.<.D 5 5 ( 1.,.e.XXo.,...p 4 p | <.-. X",
"q.o.1.( 9 % A O.,.2.oX0.O.<.A 4 7 W <.-.0.XX<.,.o.C 4 p ' 1.<././.2.1.o.u 4 Z o.,.<.+Xe.<.1.P 5 7 ( 3.1.e.XX<.1.o.f 4 a o.<.<. X",
"( 5 4 @ x Y ; 5 5 C y.C 5 5 4 J N % 5 5 ( y.i 5 @ 4 T k 4 5 9 <.,.9 5 4 t E 6 9 9 B +XP 9 9 9 Y G 4 9 y ) q.p 9 5 8 E 6 4 5 y 2.",
") 7 U Q 4.F.~ U 0 B #XA 6 ~ Q 6.>.~ Y 7 ) XXi x Q ] (.#.T V 9 w.q.8 Y Q ;.(.+.E x B #XP t ~ ~ B.B.~ Q q ..y.p V ~ @.(.@.T b i e.",
"P 4 #.^.V.d.7.7.q p q.h 6 5.B.5.4.Y.#.< P <.5 N (.G.k.k.%XQ < ....5 ] ^.B.k.7.7.x d e.Z 0 V.^.7.^._.&.6 ^ ..5 Y ^.k.6.6.^.V 5 ..",
"p x &.V.B.6.N.6.Y 4 f q G >.N.N.V.6.>.m 7 f 6 ~ G.k.k.6.B.;.l p d g ;.B.6.B.6.G.Q 6 h d G C.C.7.B.G.6.V 9 f q +.B.6.C.N.6.[ q p ",
"1 ~ R.6.B.5.V.V.;.k + 0 >.S.C.7.C.6.F.] 4 + b S.G.g.V.G.B.^.Y 4 2 E ^.6.7.6.7.7.5.x 4 z ;.7.6.Y.7.7.7.~ 8 ; G Y.C.B.C.N.g.G.b $ ",
"s 0 #.7.6.N.V.d.v 5 B 8 t d.C.6.B.Y.;.q s h 5 U Y.V.G.6.^.{ 6 B B 8 [ 7.7.B.6.7.V 9 L e t >.6.C.B.^.;.t d C 8 R 7.C.7.6.F.E 6 d ",
"/ ; #.^.V.V.6.p.0 f y.h 9 a.6.a.7.k.%.6 I e.9 V ^.B.^.B.Y.T 8 <.,.; ~ 7.^.B.6.6.x h XXK t 6.7.N.^.7.;.5 } e.9 Y 7.6.6.G.G.Y 9 <.",
"( 4 x x ~ 5.v x 3 d |.B 4 x x #.#.z l 4 / XX9 0 x V V.~ x q > 2.,.5 z x ~ N.V t 0 h XXL w N x ;.#.v x 5 _ e.q t m G b.Y k q 9 r.",
") 9 9 4 8 t ; 5 5 h  XB 5 5 ; t q @ 5 : ( i.d 9 9 ; t 8 ; 9 9 ,.<.p p 5 2 x 8 9 i h #XK i e > v r 9 p i ) q.s 9 5 ; x ; : 5 i 0.",
"y.e.}..., + C e.e.e.XXe.1.}.^ X 5 ` e.3.e.XXe.e.q.j * i O.e.}.XX.X}.}.o.i = Z {..X}.XX}.3.}.I , 9 ...X.X}. X}.}.1.f + f 1.}.q.XX",
"| P D C 9 3 s P P W e.( P P i ; < h P D | e.P P L s 8 8 A P K 0.2.P ^ C 9 0 9 A P ^  X_ P P g t w C P A ..e.L P A i 4 8 A P A 2.",
"I ; 4 - J { 8 - * d XXp . 4 = ~ Y O 4 + P e.9 4 2 w @.b - 6 > X...; 1 = V @.0 1 - d }.A 8 8 8 ~ ~ 8 w > ( e.9 8 2 t @.k = < : ,.",
"P 2 R >.9.9.#.+.8 h XXf 1 +.@.4.4.@.E 2 ! e.8 v #.;.Y.;.&.U > 2.<.; Y ;.>.B.#.[ r d XXP 6 @.;.B.N.;.@.w _ 3.9 J #.;.6.#.+.N 9 0.",
"h = ~ k.&.;.>.;.1 ; ^ 9 < &.;.&.5.V.@.+ d / > x g.g.&.;.5.Y O K A * E k.>.6.6.6.v 8 ) p 0 >.6.4.>.6.@.- h ^ ; V 7.;.;.5.B.V = L ",
"4 V >.9.;.&.&.;.E < @ < Y &.#.&.;.;.>.U = ; r +.5.>.>.5.&.;.c = 4 v ;.5.4.4.;.5.+.0 4 8 ~ 5.;.;.;.>.4.Y 2 5 x @.#.;.#.;.5.#.0 ; ",
"= V 9.*.&.*.&.&.T 1 + < Y *.#.#.&.*.&.V 2 + 0 +.p.*.*.&.&.#.z $ = c *.*.5.;.*.4.+.w 4 6 E 6.;.4.;.4.5.Y 6 = r @.&.&.&.*.*.%.k $ ",
"B = ~ d.&.&.5.&.1 5 ! 9 4 %.#.&.&.*.] $ d ) , x b.*.*.&.6.T < L L < U h.;.*.5.6.z w } h 8 &.5.;.>.6.+.4 B ) 4 N 5.#.*.*.*.b + L ",
"! 4 E @.&.p.] ] 1 d /.M 1 ] ] *.&.+.T < P [.i b %.#.b.&.] F < 8.0.4 U @.&.5.&.] x B @XD z @.@.5.5.@.] 4 } e.9 V #.#.&.%.+.c 5 0.",
"{ @ $ $ c E $ . . a t.B $ $ . U F . $   L t.9 $ $ 1 E x + . + :.X.; $ $ x +.0 $ < d [.A < < < R T < < < ) i.5 $ $ 1 ] 0 O O = 8.",
"X.A P h % $ 5 Z S / t.} S A y $ < p D A  .y.P P S 7 < 4 h D D w.0.S D Z 7 1 5 D D ) +X} P D a 4 6 f P P <.t.P L Z 4 4 4 C A P 0.",
"y.e.}.' 5 X Z e.e.r.y.t.0.y.^ X % ( y.e.y.y.e.e.q.j X i O.}.e.oXy.i. X,.9 . D q.e.XXoXy.e.}.( 7 5 _ e.e.e. Xe.e.1.a X d 0.e.t.t.",
"/ i p 5 7 x + i 5 j `.Z 5 9 # 0 0 % 9 9 L t.f i y @ c 4 5 y p :.<.u p 5 7 c 4 q d A /.P p a 5 x r 9 d p | e.g p i ; x < i 7 d :.",
"/ ; k x E 9.b z < p `.g o 1 r %.+.x x + P y.9 6 x V z.E k l % 8.O.% k x T p.J c k m +XS < c z #.#.z c 4 ..t.5 4 z b 9.U z 1 4 0.",
"! % +.b.p.p.z.&.6 d t.h 6 &.5.*.&.b.@.< L t.7 c b.p.z.p.k.T 4 <.X.@ ~ F.5.b.g.5.x m oXL 6 *.g.6.6.g.#.8 ` r.7 G b.>.5.5.b.F 4 :.",
"p 0 +.p.p.d.&.*.x 4 B 9 k &.*.&.=.p.+.0 5 S 4 U b.p.p.p.5.E 4 m C 6 ] A.*.h.h.k.b q L d x 5.5.5.6.6.#.z d S 8 R g.&.9.>.p.U $ f ",
"$ E H.=.>.p.&.p.#.0 . 6 @.p.*.9.p.&.s.] $ . c s.p.p.p.p.5.T.U $ % T g.5.s.5.*.A.z.c 4 k %.k.*.5.5.5.k.+.7 $ V z.5.5.5.p.>.6.x . ",
"5 z &.p.*.z.&.5.V 6 q 4 b &.&.&.p.&.&.c 6 p 6 T z.=.z.p.p.@.0 p q k #.p.b.A.b.b.E r m q U 5.g.5.p.5.&.c q d 0 ~ g.*.&.>.*.] 0 q ",
"I @ @.J.9.9.p.d.r q 0.g 3 =.s.&.=.c.@.< A 0.: v T.J.z.z.E.T < ..} % +.(.b.A.T.T.c d t.B 0 d.G.g.s.E.#.4 I <.9 U ~.p.>.9.b.F 4 ..",
") 7 R R &.b.E U 0 B [.B r R Y z.&.Y Y 6 ! y.p b E E T.$.U V 4 0.<.7 F T %.!.{ R x B +XB q T Q g.5.R R 6 } y.i F E { H.{ Y b q 0.",
") 5 4 X k U . % 4 h y.B 4 @ < b x + % @ ! t.i 5 @ 4 U z @ % 5 0.0.& % % k T 1 4 9 B OXK q 4 = V N 4 9 5 ..e.p 4 @ 6 Y 6 @ 4 p 8.",
"0.....I 5 $ h ....X.t.X.} | C 4 4 S X.' 0.`...o.' p < 6 ( X...y.e...o.( 5 < M ..X.8.+X<...o.Z 9 7 D ,...y. X....( p < q ) ....t."
};
