/* XPM */
static char *f7cffcbed99e4c3c9f0eb52286b7874eMe2UmbopDCmDxoHS[] = {
/* columns rows colors chars-per-pixel */
"64 64 206 2 ",
"   c #B47F5B",
".  c #B27F60",
"X  c #B3825D",
"o  c #BA855D",
"O  c #B68B5E",
"+  c #BB895F",
"@  c #B48156",
"#  c #B5935D",
"$  c #BA945C",
"%  c #BE9A5D",
"&  c #BA9153",
"*  c #AE8764",
"=  c #A28A64",
"-  c #B58562",
";  c #BA8664",
":  c #B68A66",
">  c #BC8B65",
",  c #B3866A",
"<  c #B58B6C",
"1  c #BB8D6B",
"2  c #B9876C",
"3  c #AE936E",
"4  c #BB9562",
"5  c #B79967",
"6  c #BC9B65",
"7  c #B4946E",
"8  c #BD916D",
"9  c #BC9C6B",
"0  c #B58C72",
"q  c #BB8E73",
"w  c #B18E78",
"e  c #B88F79",
"r  c #AD947D",
"t  c #B69474",
"y  c #BC9373",
"u  c #B49A72",
"i  c #BD9B74",
"p  c #B6957B",
"a  c #BC957B",
"s  c #B69D7C",
"d  c #BD9A7C",
"f  c #BFA067",
"g  c #BEA16D",
"h  c #BEA274",
"j  c #BCA27B",
"k  c #BFA87F",
"l  c #B4A177",
"z  c #C28C5E",
"x  c #C39B5C",
"c  c #C28D64",
"v  c #C18E6A",
"b  c #C29364",
"n  c #C29D64",
"m  c #C99D60",
"M  c #C3936C",
"N  c #C19E6B",
"B  c #C89F6B",
"V  c #C8946D",
"C  c #C29574",
"Z  c #C99570",
"A  c #C39A74",
"S  c #C99B74",
"D  c #C1967A",
"F  c #C39B7B",
"G  c #C99D7B",
"H  c #C4A165",
"J  c #C9A364",
"K  c #C3A36D",
"L  c #C9A56B",
"P  c #C7A96D",
"I  c #CAA96D",
"U  c #C3A473",
"Y  c #C9A672",
"T  c #C6A975",
"R  c #CAAA74",
"E  c #C3A57A",
"W  c #CBA27D",
"Q  c #C5AA7C",
"!  c #CAAC7B",
"~  c #C7B07E",
"^  c #CBB17D",
"/  c #AE9483",
"(  c #AD9B8B",
")  c #B49581",
"_  c #BC9682",
"`  c #B59A84",
"'  c #BC9B83",
"]  c #B59D8B",
"[  c #BB9E8A",
"{  c #AE9C92",
"}  c #B39F90",
"|  c #BA9F92",
" . c #BDA485",
".. c #BFA982",
"X. c #B5A28D",
"o. c #BDA28C",
"O. c #BCAB8D",
"+. c #B6A383",
"@. c #B6A293",
"#. c #BCA493",
"$. c #BDAA94",
"%. c #B7A79C",
"&. c #BBA69A",
"*. c #B6A99C",
"=. c #BCAB9B",
"-. c #B4A892",
";. c #BFB194",
":. c #BEB29C",
">. c #BDADA1",
",. c #BDB3A4",
"<. c #BDB4AC",
"1. c #BFB9AD",
"2. c #BFB7B4",
"3. c #BFBAB4",
"4. c #BEBDBA",
"5. c #C19681",
"6. c #C29D82",
"7. c #C99E84",
"8. c #C29D89",
"9. c #C4A284",
"0. c #CAA384",
"q. c #C4AB83",
"w. c #CAAD83",
"e. c #C4A38B",
"r. c #CAA58A",
"t. c #C4AC8C",
"y. c #CBAB8B",
"u. c #C7B185",
"i. c #CBB285",
"p. c #C5B18C",
"a. c #CAB38B",
"s. c #C7B88F",
"d. c #CDB98D",
"f. c #D1B58D",
"g. c #D4B98E",
"h. c #C3A592",
"j. c #C3AA94",
"k. c #CAAB94",
"l. c #C5A598",
"z. c #C3AC9B",
"x. c #CAAE9A",
"c. c #C4B393",
"v. c #CAB494",
"b. c #C7B896",
"n. c #CCB994",
"m. c #C4B49B",
"M. c #CBB39A",
"N. c #C6BA9C",
"B. c #CBBA9B",
"V. c #D1BC96",
"C. c #D1BE9E",
"Z. c #C3AEA2",
"A. c #C3B3A3",
"S. c #CBB5A3",
"D. c #C5BAA4",
"F. c #CBBCA3",
"G. c #C3B5AB",
"H. c #CBB6AA",
"J. c #C5BBAC",
"K. c #CBBCAB",
"L. c #D1B7A6",
"P. c #D1BFA7",
"I. c #D0BDAD",
"U. c #C1B7B3",
"Y. c #C4BBB3",
"T. c #CABDB3",
"R. c #C4BEBA",
"E. c #C8BFBA",
"W. c #CFC1A7",
"Q. c #C7C0AD",
"!. c #CDC1AC",
"~. c #D2C3AC",
"^. c #C6C0B3",
"/. c #CCC3B3",
"(. c #C6C2BD",
"). c #CBC4BB",
"_. c #CEC9BC",
"`. c #D2C5B3",
"'. c #D2C9B4",
"]. c #D1C4BA",
"[. c #D3CABB",
"{. c #BFC1C0",
"}. c #C5C5C4",
"|. c #CBC6C2",
" X c #C6C8C6",
".X c #CCC9C5",
"XX c #C5C6CA",
"oX c #C9C7CA",
"OX c #C6CACC",
"+X c #CBCCCD",
"@X c #D2CBC5",
"#X c #D8CFC0",
"$X c #D2CDCB",
"%X c #CED0CD",
"&X c #D3D1CE",
"*X c #D8D0CD",
"=X c #C7CFD2",
"-X c #CBCED2",
";X c #CBCFD8",
":X c #D0CFD4",
">X c #CDD1D4",
",X c #CED4D9",
"<X c #D2D3D4",
"1X c #D2D5DA",
"2X c #D3D8DC",
"3X c #D5DCE2",
/* pixels */
"`.Q P ! d.R J q.I.G r.r.r.k.0.H.I.w.0.y.w.0.W M.q.J I w.R I P P.~.Y Y ^ a.Y J q.F.G r.9.9.9.[ T.].0.y.M.y.y.w.L.y.R q.t.q.h K B.",
"Y 6 H ^ n.Q n |.7.V D G V v G x.x.S W S G S A r.).K R n.R R R Y T 6 P R n.Q H .X6.c d a q i i l.z.S E A F F C e./.h Q F.i.T U ! ",
"R Q K q.w.U .X2Xy.V D S V G D k.F.A U 0.G G F r.<X.XL i.w.Y ! Y ! T f i.q.T +X2X9.C 5._ D D D &.A.E F G F 9.6.o.+X}.W v.c.! ! ! ",
"q.K a.K H J /.2X0.M S D A G F k.S.0.r.G W 9.D 9.>X~.I R x q.Y T q.P c.H J J /.1X7.v F _ _ ' D #.l.9.9.F 9.e.e.8.=X].! ~ U c.T q.",
"T b.q.H P H /.1XG c < 7.F G c k.S.9.j.E 0.0.G 9.<X_.L P L w.b.Q U b.q.H T H ).<XG 8 d 8.e.6.8 o.m.9.e.6.9.9.0.e.>X_.j ! ! a.F.p.",
"H ! s U 6 O.+X<Xr.C C G D D Z k.M.W G r.r.D S 9.:X-XK.T U q.P H K T h g 6 $.-X<X0.D i 6.6.F M j.m.G 6.r.r.6.A h.<X<X1.j h 9.U H ",
"H % }.+X X>X<X<X9.z b z y A M 9.j.b V C M Z V A <X<X1X+X+X<XY P H 6 |.+XoX<X<X<XG 1 M 8 D D C h.m.9 A F i D M a oX<X,X.X.X>Xh H ",
"j D.%X&X&X@X@X<XT.' [ e.z.e.8.T.K.[ [ [ e.6.e.A.<X|.|.@X@X.X).j.j J.&X*X*X@X@X<XG.` ` ] z.j.o.J.G.` [ a [ ) _ >.<X&X&X*X&X&X). .",
"|.k.W W W G A 0.&X1X<X<Xg.I g.&X2X`.w.p.%X>X%X,Xx.S G S Z V F M.|.r.0.0.W G A y.<X<X-X%Xd.! c.%X>X/.y.B.%X+X%X,XH.7.7.6.G S 0.j.",
"K.V F A M M b D .X&X,XB.x I I W.$XR R J a.<X&X<Xk.V b c c c M e.S.M G V M c M A .X+X>XM.6 U Y D.).Y Q K c.>X X<Xj.0 , D C 2 Z F ",
"J.C S M M > 8 D oX&X<Xm.H ! J i.I.R R I v.&X<X<X0.z M c C V M j.J.C A 8 M > 8 E +X<X<Xm.K E N c.J.K T E m.1X>X<Xh.1 a e D D D 6.",
"T.D y C 8 M C i ).R R E Y ! a.u.F.v.a.R d.i.! @X6.c M v D D D k.T.y i A y 8 M D ).! i.a.U U q.p.S.c.c.E v.n.f.@Xe.M D 6.5.D 6.e.",
"H.a D D 1 D 8 D c.H N K n w.b.B./.B.B.H P P L T 7.D c V C C q h.G.D i D 1 D 1 d a.H 9 K $ E b.b.T.n.N.A ! W Y q.h.D e D D 5.F [ ",
"G.h.9.S F 8 8 9.M.K ! ! B.! L c.!.! ! F.! J P A e v 1 M D F q h.T.o.7.F A y 8 e.j.Y ! Q c.E K M.!.E k m.Q U T g 5.D q e D 7.y 8.",
"Z.a s y > y y a E.k 6 U a.U B  ./.n Q b.Y J N D.h.1 c v > v 1 l.A.a a 8 1 y 8 d (.j 6 N p.U 4 j.J.6 U p.h N 6 m.h.2 , 2 q q : ' ",
".XG.D.=.@.@.@.G.+X+XU.m.A.K.G._.+XK.Q.J.m.J.|.-XoXY.H.H.=.#.Z.oX@XG.G.>.-.@.| G.-XoXY.m.D.,.D.R.oX:.J.,.m.J.Y.-X}.G.<.Z.&.} >.).",
"].7.8.r.8.7.7.z.+XK.a.w.n.V.w.F.P.W a.B.w.w.v.:XS.E k.9.E y.E A.].7.r.6.e.e.7.m.+XW.a.q.p.B.w.F.J.E B.B.a.a.F.+XK.y.M.M.x.z.v.H.",
"Z.1 v ; D D q a m.Y H i N.Q L a.F.N E N.! x 6 M.y.N F 8 N D M h.G.; v c D C e p M.K n 9 c.h % q.c.n U B.q.x L m.t.V 9.F A i C 6.",
"S.D q q C D y p j K U K 8 E Q c.Q.s.p.N U Y P q.j.G 6.E F E a z.A.C y q C D y _ j K A 6 9 U P j.J.! E A Y U K k h.F 9.6.' 6.F h.",
"l.D D q y a C d >.# 6 u 4 A ;.j.m.O.m.U U Y m D.z.C 6.r.7.[ y z.Z.C D 8 y D 8 ` =.# $ 5 $ i O.m.,.c.c.% 9 g % c.$.C 9.e.6.6.6.e.",
"Z.D C > 1 y 1 1 }.,.&.-.h 6 $ O.c.% A h $.<.J.OXh.y i A 9.9.y l.Z.C C . y y 1 y XX=.@.,.U 6 # $.c.% H h $.m.A.<Xj.1 i D a 6.' [ ",
"Z.D 1 > 1 M > 1 (.-X;Xt.x Y n A.J.6 U 5  .XX XOXe.C a D D ' d =.Z.C v v 1 v c 8 }.+X>Xp.6 h % >.,.6 f U t.,X:X>Xe.8 A V F 6.6.e.",
"z.o o ; o o > y |.OX=XD.$ f 5 U.{.h h 5 =.+X+XOXo.q y 1 8 8 > A.l.  . c o o > y  XoX=X=.# 5 # 2.4.6 f 4 $..X X,Xe.M y o ; D y [ ",
"T.[ [ o.[ [ ` =.+X].).|.-.u -.OX XU. .=.).|.|.+XR.&.$.#.#.=.A.U.T.[ | 8.[ [ ` >.+X_.|.}.X.r %.OX+XQ.3 X..XoX.X%XY.` ` +.` o.@.G.",
"T K.,X>X1X=X+X>Xx.M A D e.F C M.m.A r.7.G D M r.+X-X=X>X-X=X,.6 T !.,X>X,X+X+X>Xj.M d s 8.a y A.A.D ' ' 6.D C j.<X=X=X-X-X>X'.^ ",
"Y n F.).P.@X$X-X .8 8 8 F A G e.#.A A F F C M F |.oXoXJ.K.J.4 K Y n K.`.!.@X%XOX' > 8 y p y y ` p : y a a q 1 ' .X+X:X]./.@XL I ",
"K k U P H U |.>Xj.D i 1 A A A 9.j.M C D D C b y  X+Xc.K g U t.i Y k T L H U .X>Xh.8 7 y p a q ` ] < 1 q _ a i d oX-XB.I P Y y.Y ",
"E c.c.U Y n c.=Xe.i A O M G N r.z.M 7.C C C > C oX|.L U n p.O.q.9.c.j.U Y n m.>Xo.y i > 1 d 1 [ #.8 a q y < 1 p oX|.H K 6 O.c.t.",
"N T E 5 i K J.>X .y y M N D y ' x.b 6.1 8 C y a oXoXh U N h E U U Y U 5 i g ^.>X' y 8 : C p 1 ` #.- p e 8 < t a |. Xh g 4 k h h ",
"U T 9 ..b.q.F.,Xe.1 8 y i C 8  .j.: a y 1 i i y +X/.i O.O.U h U T Q 9 ..c.Q K.>Xe.> > y : t y ] @., 0 1 1 0 y p +XoXq.p.p.H h T ",
"5 N Y U p.u.x c.#.X ; : - - o a =.X : 1 - : > [ G.H U j 4 h U 5 5 U h T p.q.x B.[ @ : > - , - p @.  * , * - : a T.4 Y t.K k g N ",
"R.h U Q h A U 9 U.$.=.*.*.&.*.J.).&.%.>.*.&.=.U.T n 5 O 9 9 g 3.R.K Q Q h f g g <.] X.@.#.@.] <.2.] ] @.X.] @.3...6 U N T U Q ,.",
"`.! ! q.j.h K +.G.l.l.l.l.l.r.T.T.e.e.j.h.e.' =.j x 9 j f 9 i b./.T ! q.t.E h  .Z.a _ 6.[ _ a Z.G.[ ' 9.[ h.e.#.X.H h O.Q E U M.",
"P i Q q.N.q.i }.l.2 _ _ e q q [ z.1 8 8 C 1 ; _ R.6 9 c.K A 5 6 U A Q q.N...i  X[ . 0 0 0 0 , [ #.< q : t e < p 4.s i m.q.Q Q T ",
"T r.w.E q.q.|.,Xl.e _ a D a y #.G.8 y 6.e y t a OX4.9 Q k 7 i 6 T u.Q q.q.9.OX>X[   , 0 , , 0 | >.7 t a p a _ _ }.}.h q.t.j q.U ",
"q.Q m.U U T J.>X8.D 5.D 5._ 0 #.z.' o.p w p a y OXJ.6 f & j N U t.Q c.U U T T.-X_ . 2 0 w e q ] =.p d y p p p p }.4.h E n c.q...",
"9 N.p.K Y 9 ^.1X8.0 _ _ _ a < [ =.d ` a a 5.e a OXR.4 n n h c.i N N.q.K U i ).<Xd - q e e q : o.=.y p y d p e )  X}.i A K 9.N...",
"K Y  . .5 =.>X-Xl._ a _ p a C 8.=.y y F i 2 q ' XXOXD.5 i s 6 n K R  .k 5 =.>X-Xo.< q 0 0 < ; ` $.y p p a q q ) }.OX1.u u +.9 K ",
"H H }.>X-X1X+X+Xe.< 2 ; 0 a 1 [ z.; 8 1 ; ; , q }.oX=XXXOXOX9 n H U  X>X-X,X%X=X[   . - < 2 . ) o.- 0 : ; 2 > w  X.X.XOX}.=X .H ",
"+.J.$X$X$X.X.X:XR.#.| | @.] ] 3.R.r ) p [ ` _ { XX(.}.|.|..X^.+. .Y.$X$X@X@X$X+XU.} ( { $.] ( 2.<./ ` r ( / / >.oX}.}.@X.X.X(.-.",
"E.e.F 9.e.7.8.l.<X1X,X&Xs.q.B.%X>XJ.q.v. X=X=X}.h.D F D C M C A.(.e.' 6.e.7.6.l.>X+X>X.Xu.q.F.+XOXK.u.c.}.XX X=Xj.0 ' D D 5.q @.",
"A.y ` d D 6.p _ .X+X>Xv.n Q U K.).K h H c.OX}.oX6.8 1 v o > o [ A.8 d d D F a ' OX}.+XO.9 k U J.).K 9 6 j.XX(.OXo.1 q 1 : q a a ",
"G.D d F D C a e.<X%X>Xb.U Y 6 m.D.K U K O.+X}.oXy ; M c v > > e.G.C ' ' D D a h.+X X.X$.h Q N c.D.6 U U O.=XoX+X[ o 8 1 y a D h.",
"A.d F d d d a e.|.Q q.t.N q.t.O.m.c. .7 t.d.y.}.y   > 1 1 c 4 =.G.A F d a 6.q e./.T ! q.6 k t.-.A.c.t.U c.v.V..X[ > 2 1 y q _ #.",
"G.a a F y ' y ' v.P 9 f 6 j.b.m.,.;.O.* 9 f H ..D v ; ; : 8 1 l.G.y ' d y _ y [ u.K g K 4 t.p.:.J.v.c.n E E H q.8.1 y q e a 5.h.",
"H.r.9.[ ' D F o. .f R T m.h U b.,.h k N.U 4 K 9 y c ; q 8 a v =.J.e.9.6.9.d F @...K T q.D.q.Y m.D.U Q D.q.T E s 8.a q q a a < j.",
"z.a d d C D i ` R.= $ 9 O.h % j.J.6 k O.u # & :.p o + 2 o o o j.Z.y d a y a y ' (.u # 8 +.j 5 O.D.5 h ;.h i 5 A.&., * , , < < o.",
").,.G.G.=.=.Z.Y.,X+X^.A.,.,.D..X.XD.J.=.( ,.E.=X).Z.=.Z.#.] *.|.}.A.G.D.Z.>.m.Y.-XOXU.A.,.,.J.R.}.,.,.,.=.,.E.-X}.G.>.>.@.&.G.(.",
"T.r.r.r.x.r.y.F.<X~.n.f.C.n.^ F.K.! d.B.! i.P.+Xm.w.x.y.y.t.9.J.T.r.r.r.x.y.y.H.<XB.u.w.B.v.i.F.F.Q n.M.a.n.B.<XK.y.M.M.v.M.M.T.",
"j.v M C D a D e.B.P Y T F.w.x a.F.P T N.U m H N.9.M a G M C ; j.Z.; C y D a D e.N.N N k N.q.K ;.D.U h N.h x K F.r.y A F A i y e.",
"Z.C C 5.i 6.D j.y.T ! P A q.Q B.'.u.w.N U Y L ! r.C i y D E 9 z.S.C e D D 6.i h.k Y Q U A Q Q D.Q.v.$.9 U U f q.t.i 9.' 6.[ 6.l.",
"l.C e D D d i e.J.n P Q Y u.N.F.F.N.c.x N H n D.t.4 A A i 6.1 l.Z.C y C D a C j.D.6 i j h q.;.m.D.D.m.i l l 4 =.j.8 i o.[ 6.d h.",
"z._ a 1 A 8 1 D -XD.m.~.i.! N H.F.L Y Q m.m.Y.1X9.+ A A A s > j.Z.5.e v A 7 8 A =X,.:.,.Q i f G.m.9 h p.m.>.,.=X+.4 y i 9. .d l.",
"z._ D M C V 4 y +X1X3XV.R w.I /.Q.R ! K t.,X+X-Xi M D 4 D D d z.Z.D C v M V c a oX+X,Xu.h E U 1.D.K ! k :.=XoX X' : < 8 D d 6.$.",
"z.> 2 > + c c D :X<X1XF.K P Y |..X! R Y J.1X$X>XF z 8 o 4 C > Z.l.; v c > c > 6.>X$X=Xm.6 h 3 3.4.l k l *.oX.X=Xa o 1 ; > y 1 o.",
"T.| [ [ o.e.o.A.<X@X@X*XF.t.Y.1X1X/.l =.$X$X@X<XY.d o.h.o.#.=.).E.] ] [ [ e.e.H.<X@X.X.Xm.] <.$X+X>.r :..X.X.X<X<.` ] ] s ] &.).",
"a.!.1X1X2X<X<X2XL.A 7.r.M.y.G I.L.0.9.r.r.C M M.1X>X-X;X,X<XF.! i.`.<X2X2X1X1X1Xx.C 7.7.j.9.F H.H.F [ 6.6.6.C j.>X>X>X=X>X,X'.i.",
"P L `.#X'.*X<X1X0.C 0.F r.F S j.r.C G e.6.A M 9.+X+X&X~././.H n Y I [.#X`.$X<X<X6.i i F e.F i h.j.' F d 8.y y 9.$X+XoX'._.^.L P ",
"K a.f.! Y Q @X<Xk.i 6.E 9.9.D k.k.M 7.6.d A y p +X>Xn.H H 9 t.P U a.u.! K q.*X>Xe.i d F e.[ i j.l.y D 7.' d d o.+X<XW.R R w.p.T ",
"u.B.b.R Q T F.1Xr.9.7.C G 9.V x.x.D 6.6.F D D d +X).n P J b.s.Q q.F.n.Y ! P K.1Xe.E 9.a p d 1 #.j.1 ` y 8 D A d >X|.T ! T M.c.a.",
"Q ! Q N i.! _.>X0.G V A G G G M.k.Z 7.F A A F e.%X.XK Y K ! P K ! Q Q f ~ ! |.&X9.F d y a ` 8 #.l.y _ d D F D [ OX(.h Q Q q.Q ~ ",
"Q T Q u.N.i.'.1X9.A A W r.9.G M.x.b 7.A F D a e.1X[.Q v.u.K K L Y Q T s.N.a.[.<X9.D i i 6.e.E z.$.y 6.D y i i ' >X.Xq.b.a.K Q ! ",
"U T ! T s.a.L !.e.M C V D D M e.x.c V D c V 1 9.~.I Y u.P ! Y U h T ! T b.i.I !.e.< < i 8 A 1 $.&.1 a 1 8 > 8 ' '.R ~ v.T ! f 9 ",
"U.T T Y P R R W T.z.z.z.D.=.l.).|.z.D.S.#.#.Z./.i.Y J J Y T Y J.U.Y P T P R Y ! (.l.=.=.z.=.] U.E.{ @.=.=.X.j.Y.d.Y U h Q U h A."
};
