/* XPM */
static char *_ad5d806c26b40dbf89959f7ae6c696cJyi7C1yHDnt2hXnu[] = {
/* columns rows colors chars-per-pixel */
"64 64 180 2 ",
"   c #0A0601",
".  c #0D0A05",
"X  c #0D0C0A",
"o  c #19140D",
"O  c #16130A",
"+  c #1D1910",
"@  c #231C15",
"#  c #201F1B",
"$  c #23221C",
"%  c #2C261E",
"&  c #2C281F",
"*  c #372E1F",
"=  c #252620",
"-  c #2A2720",
";  c #2B2923",
":  c #332C25",
">  c #332E29",
",  c #303227",
"<  c #36322A",
"1  c #3A352D",
"2  c #3C392D",
"3  c #3B3631",
"4  c #3E3A33",
"5  c #3D3D39",
"6  c #353433",
"7  c #413D35",
"8  c #413F3A",
"9  c #3D423B",
"0  c #424135",
"q  c #44423C",
"w  c #4A453D",
"e  c #49493A",
"r  c #4D4337",
"t  c #52513F",
"y  c #454542",
"u  c #494742",
"i  c #464940",
"p  c #4C4B45",
"a  c #4E4D4A",
"s  c #524D44",
"d  c #514E4A",
"f  c #4E5042",
"g  c #4D5249",
"h  c #53524D",
"j  c #59564F",
"k  c #555A4F",
"l  c #5C5849",
"z  c #555550",
"x  c #5A5750",
"c  c #565C52",
"v  c #5B5C55",
"b  c #5D5D59",
"n  c #615E5B",
"m  c #5B6255",
"M  c #5C635A",
"N  c #5E695D",
"B  c #63635C",
"V  c #68645E",
"C  c #62695D",
"Z  c #686A5F",
"A  c #606455",
"S  c #5E5F61",
"D  c #5F6B60",
"F  c #656561",
"G  c #696663",
"H  c #656B63",
"J  c #6A6B65",
"K  c #676E6A",
"L  c #6D6D6A",
"P  c #706E6B",
"I  c #657165",
"U  c #6C7465",
"Y  c #6B7867",
"T  c #6C726A",
"R  c #6E7A6E",
"E  c #72726E",
"W  c #79766E",
"Q  c #737A6F",
"!  c #757573",
"~  c #797674",
"^  c #747B72",
"/  c #7A7976",
"(  c #797778",
")  c #7D7C7B",
"_  c #817D77",
"`  c #817E7C",
"'  c #768276",
"]  c #7A8276",
"[  c #768279",
"{  c #7C837B",
"}  c #7E887F",
"|  c #77897D",
" . c #82817E",
".. c #81897D",
"X. c #7F7F81",
"o. c #817D81",
"O. c #7F8181",
"+. c #7F8B81",
"@. c #858483",
"#. c #898685",
"$. c #848A84",
"%. c #898986",
"&. c #868688",
"*. c #898788",
"=. c #878989",
"-. c #8C8C8B",
";. c #918E8D",
":. c #849086",
">. c #869088",
",. c #8D908E",
"<. c #91918E",
"1. c #8D8E90",
"2. c #8E8F91",
"3. c #8D8E92",
"4. c #8D8E91",
"5. c #918F90",
"6. c #918F91",
"7. c #8F9190",
"8. c #8F9092",
"9. c #8D9191",
"0. c #8F9294",
"q. c #8F9192",
"w. c #909090",
"e. c #909291",
"r. c #909193",
"t. c #919392",
"y. c #929292",
"u. c #939391",
"i. c #929493",
"p. c #929491",
"a. c #949593",
"s. c #919294",
"d. c #929395",
"f. c #919296",
"g. c #939594",
"h. c #939496",
"j. c #919596",
"k. c #949597",
"l. c #959695",
"z. c #939494",
"x. c #989697",
"c. c #969896",
"v. c #969897",
"b. c #999997",
"n. c #939699",
"m. c #969799",
"M. c #959699",
"N. c #959699",
"B. c #98979A",
"V. c #96989A",
"C. c #97999D",
"Z. c #96999A",
"A. c #98999B",
"S. c #989A99",
"D. c #999D9D",
"F. c #9A9B9B",
"G. c #9EA09F",
"H. c #A0A19E",
"J. c #9D9EA1",
"K. c #A09FA4",
"L. c #9EA1A1",
"P. c #A1A2A3",
"I. c #A5A6A9",
"U. c #A7ABAE",
"Y. c #A8ABAD",
"T. c #AAA1A4",
"R. c #ABADB2",
"E. c #AEB2B7",
"W. c #B2B2B5",
"Q. c #B3B5B9",
"!. c #B5B9BD",
"~. c #B9BABF",
"^. c #B7BCC0",
"/. c #BBBDC4",
"(. c #B7BEC8",
"). c #BDC2C6",
"_. c #BEC4C9",
"`. c #C0C1C6",
"'. c #C2C6CC",
"]. c #C6C9D1",
/* pixels */
"0.&.-.1.-.@.) ) ~ r.-.@.1.r.r.%.r.-.l.0.-.z.-.! %.-.{ -.-.,.=.) <.=.` ~ ) &.) -.-.{ -.@.-.1.0.1.9.1.<.-.) @.B. .` r.-.=.s.s.8.-.",
"8.-.-.s.8.) ~ -.-.1.-.{ r.i.~ / M.-.~  . .8.,.h.8.-.) -.8.-.-.) 8.-.) {  .@.~ -.&.=.-.@.-.1.0.-.=.-.@.^ V.r.@.a.l.l.,.@.) ~ =.j.",
"=.j.=.=.1.&.n.-.-.h.&.&.h.h.@.l.-.&.-.-.-.<.l.-.@.-.z.-.-.h.=.@.h.r.-.r.s.3.@.&.=.-.-.-.-.-.8.-.l. .` #.8.V.%.V.-.&.n.s.@.$.h.O.",
"=.0.&.@.8.9.@.-.0.1.-.@.-.l.&.-.-.i.,. .M.$.) #. .1.M.8.-.r.-.~ { ,.-.&.{ 6.{  .-.-.@. .-.-.s.@.-.r.r.z.<.s.l.&.` ! 0.1.0.C.h.) ",
"0.) C.1.-.=.-.r.-. .&.D.-.&.l.%.;.$.-.s.1.-.$.h.8.h.` &.-.%.-.O.-.) $.@.-.*.-.s.&.) -.6.) @.0.0.&.-.,.-.f.8.r.-.&.-.l.z.@.s.s.D.",
") 9.6.A.1.8.-.,.@.&.@.M.8.-.V.r.c.,.r.) -.a.r.@.$.h.@.-.,. .#. .-.L %.;.1.6.{ ) M.-.-.-.%.1.-.@.M.s.r. .=.h.8.V.&.) -.M.D.&.) @.",
"@.3.0.@.@.,.s.V.s.@.l.,.) %.V.-./ ;.M.s.<.-.i.i.r.-.r.%.-.l.r. .r.i.r.,.P #.-.-.-.~ ) s.@.%.s.M.-.&.-.h.c.V.%.-.M.,.l.A.-.,.M.-.",
"0.0.D.-.-.i.,.-.%.-.l.V.a.n.V.b.V.r.F.s.) -.a.) @.%.i.%.,.h.-.@.r.<.-.,.-.-.6.-.;.$.r.@.,.&.6.l.-.) l.8.@.,.J.&. .A.M.A.&.&.r.*.",
"V.-.-.M.M. .E &. .c.-.` b.C.-.) c.r.<.%.<.A.a.;.a.x./ a.h.i.<.) c.-.) ~ / #.) r.-.%.<.,.l.l.A.r.r.D.A.#.z.;.b.r.l.F.6.&.h.A.h.-.",
"3.z.l.D.l.-.l.r.V.s.l.r.-.M.) ,.P.<.) -.@.z.<.b.<.<.%.%.,.<.-.@.A.r.,.<.r.;.` -.-.r.,.#.<.r.i.l.i.$.~ ` A.D.$.A.h.<.D.6.r.1.@.#.",
"M.@.E l.-.&.V.B.l.r.c.%.P l.G.;.` r.D.b.D.%. .x.c.b.$.%.<.r.%.%.A.-.,.%.;.6.,.%.@.%.i.c.-.,.b.-.r.-.b.<.z.;.z.H.a.-.h.$.A.l.1.r.",
"l.r.-.a.A.V.z.i.) %.<.V.a.b.r.a. .a.b.<.r.<.<.b.%.#.F.A.%.P -. . .M.$. .z.*...;.A.a.) / l.l.c.%.M.l.%.<.A.-.z.H.P.L.l.l.-.&.n.-.",
"n.M.r.M.V.;.%.M.b.M.F.~ ! ` ~ a.D.F.&.) ..a.i. . .<. .;.l.b.<.@.-.b.r.a.%.,.-.-. .-.-.a.<.r.r.F.L.z.#.F.b.F.F.D.@. .#.-.<.M.i.c.",
"~ V.;.l.H.%.A.b.z.-.l.D.F.b.D.V.l.<.A.A.x.~ b.F.A.A.$.b.b.F.h.%.<.@.M.;.%.-.i.<.%.-.l.6.b.V.b.-.%.A.I.l.` x.D.H.i.A.b.z.-.l.-.s.",
"s.;.A.L.;.-.-.A.z.#.;.;.z.D.D.D.z.a.F.F.<.x.#.-.b.A.b.-.~ _ b.%.-...b.l.b.-.<.@.<.@.%.a.@.r.F.F.H.b.#.l.D.D.F.D.H.a.A.D.#.$.V.0.",
"l.r.<.V.b.%.%.z.D.K.F.z.b.F.b.D.P.D.a.<.F.D.i.b.G.c.F.<.x.z.;.%.F.%.;.;.c.-.l.%.<.b.<.b.-.A.b.b.F.A.l.b.b.b.P.-.F.l.B.F.F.M.-.s.",
") @.D.l.r.H.F.D.-.l.F.F.b.F.#.#.-.<.A.~ #.b.F.<.F.a. .b.b.<.<.-.#./ a.i.-.b.@.r.<._ ,.b.c.F.b.<.T.I.l.F.A.a.P.F.P.l.F.<.b.r.;.l.",
"V.r.A.l.` ;.A.A.%.l.b./ ) T.K.b.a.<.L.D.<.%.%.;.b.F.b.H.<.K.F.%.F.D.a.F.<.;.A.;.r.a.<.F.i.b.A.G.s.&.H.G.H.A.H.P.<.G.D.%.a.F.-.V.",
"D.z.M.r.F.D.b.D.H.-.J.D.h.D.z.H.I.b.H.T.G.H.H.$.x.F.<.F.F. .<.$.a.F.,.b.<.l.B.W ) b.<.<.L.D.b.H.H.F.A.<.P.<.H.P.G.D.G.D.D.b.@.,.",
"#.V.b.-.M.a.<.b.J.D.P.b.l.F./ %.F.P.F.;.%.H.P.F.b.H.<.<.b.b.a.<.P.b.l.b.~ <.D.F.b.c.A.A.b.A.I.<.b.P.F.b.H.H.G.b.b.P.b.,.-.A.D.A.",
"@.<.D.D.P.a.~ @.G.,.<.>.;.H.I.D.D.G.G.b.r.b.b.V.F.$.b.D.F.P.b.%.F.%.%.H.F.b.-.b.<. .b.A.A.F.F.F.P.A.G.H.b.G.I.a.r.P.P.D.P.M.A.a.",
"P.J.B.G.z.b.l.c.c.%.-.F.D.c.A.z.G.<.i.-. .%.b.A.b.F.b.x._ -.l.$.x.b.b.-.-.a.;.-.b.A.-.#.%.F.G.c.a.F.G.F.D.<.F.D.F.<.<.F.i.@.b.A.",
"-. .G.a.G P ) ~ L ~  . .~  . .&.$.%.-.@.#.%.) ..%.~ ..-.;. .@.~ %.&.#.W .. .%. ._  .#.%.-.)  .-.<.<.-.%.%. .r.i.<.)  .,.<.a.c.G.",
"A.H.,.A H H U ' Y Z ^ ..U H U ^ W ] ] ] ^ ' ' / ..$.] { :...{ { +.{ { { / Q E Q Q ^ / Q ) ^ ~ O...` ~ E ..~ W ( ~ )  .~ -.-.a.L.",
"P.T.$.M M C ] ..m & , 9 5 1 q a w g c c c c M D c M D D N D M D N N H D D I H I I Y T Y R R R ^ R ^ { [ ^ U ^ ] Q ^ ..Q ! %.a.-.",
"F.I.H 0 q m m ' k $ 6 q y a a a h h g a a a h a a d a y a i y p u y y y y p y q y u y q y y y q q q 9 5 1 Z ..] ..{ ..{ E -.i.b.",
"L.F.A s C Y m U c K /._./.'.'.'.'._.'._._._.).'.(._._.^.!.Q.Q.W.W.R.R.R.R.U.R.U.U.U.I.U.I.I.I.I.K.J.J.f.D  .,.| { ..$.Q v ! <.F.",
"G.L.,.Z i f [ R p ; 9 c F J P P ! ! ! ( ) ~ ~ ! ) ) ) ! ! ( ! ~ ! ! ( ! ) ! ) ) / ) ) ) ) ) ) X.) ) ) ! a L >.{ } ] } Q z ! -.a.",
"F.G.+.t * 7 ^ Y q   . o $ = % ; - ; : : < < 1 > 3 3 < 1 < 2 > < 1 > 3 7 6 4 4 q q q q y 7 8 8 p y q 8 8 1 V $.>.:.$.$.' h H @.-.",
",.r.$.^ t s Q C p X # 5 a p d v h u p r s a v d z B b v A j j s b z j p c c u p s n b x j s j b B b V u $ A +.} :.>.>.T p F ~ &.",
"H.H.{ U r r I Y 0   . O @ $ - % < < < 7 2 2 4 7 4 7 4 1 q 7 7 7 q 8 7 7 r 7 w 7 7 w p w w w s s u w p w 1 v Q ' >.>.>.^ d L ) r.",
"i.P.W e s t Y A e < 5 b b G L L G G G ~ E ~ E E L V E V P B V B P V V P G n G B G B V G B V J G J B x j x W ..>.:.:.#.T a L ` r.",
"r.;.Q Y | | I t 7 L (.W.K.R.`.].'.'.].'.'.'.'.'.'.'.'././.^.!.!.~.~.Q.Q.Q.Q.Q.Q.Q.!.Q.Q.Q.Q.W.W.W.U.Y.A.E $...} } } ^ C a L ` h.",
"F.F.U C Q ' Z Z 4 # 6 y s d b n n F F G J G L L L L L L L L L L P J L L J J P P L E E E E E E E E J L B h W  .] }  ./ A h T @.r.",
"l.z.H U Z Y I H q . O O @ + @ ; ; % - , : > > < < < 1 1 2 > 1 3 3 3 7 2 7 7 7 7 4 5 7 q 8 7 q q q 5 7 3 8 Z } ] ] } ] M h ! #.<.",
"s.B.] C C Y N H k g H K J v z c M v x b A m c c v M m M M B c c m M k b c N b x b v D M M b z v x v v v b C } / { } ] B J  .@.r.",
"l.J.r.) ( H H K v b B H b H H K B H L K L H K I T J I H J T L T H M C F H F H I H H F L J H L T T H T ^ E B H L L R J B L @.%.-.",
"` _ F.M.-.) F F L F H L B J F F H P G v G L J L b b B L J n c n b F J L G G F J b F v P L G E P ! J J F J E T J L ! F L ! ) %.l.",
"M.r.J.-.) *.T ! E n F ! F L L L L L L L L T F L J F L T J J P H n J G H F J J L L J T E F J ! T H L ( ! ! ! ! ! ! ! ! ! ~ -.-.;.",
"-.B.M.J.&.6.6.&.o.) { ( ) ! @. .P J @.) ) ` @.E ! )  .@.P E / ~ O.~ @.! ! ~ ) ) ( ! ) o.) ) @.@.@.~ O.&.! ) @.! ( ) @.) *.r.-.1.",
"V.-.o.@.-.-.1.6.6.-.r.%.;.-.z.%.6.r.z.@. .-.-.) @.%.#. .%.<.;. .,.@.#.-.-.) J ` ~ %.-.` -.r.-. .6.;.;.-.-.l.;.$.,.-.) ,.<.a.-.,.",
"V.3.1.-.k.-.-.k.z.k.-.-.r.r.a.r.-.-./  .F.<. .a.;.;.l.%.<.%. . .r.<.z.r.z.*.%.%.-.6.<.,.;.M.#.-.D.z.@.;.%.b.A.F.A.M.-.<.i.r.-.,.",
"3.1.V.M.M.D.-.z.-.k.B.b.%.r.<.l.i.#.-.-.z.5.;.F.#.#.a.-.b.b.-.<.x.;.~ <.;.@.b.a.b.<.a.<.! ;.H.b.;.b.F.H.H.b.<.F.G.A.<.-.l.r.&.8.",
"-.M.@.-.z.6.z.B.B.M.` @.;.A.b._ a.l.<.%.6._ ;.D.K.D.5.<.<.;.B.#.a.<.@.-.l.z.;.a.@.%.a.F.b.D.b.F.%.b.H.b.F.F.b.G.a.l.F.b.#.) -.-.",
"1.V.z.k.s.-.6.z.<.r. .a.-.-.r.K.P.%.o.D.B.b.l.z.` ` @.-.-.r.l.l.b.l.r.l.z.<.#.<.<.b.M.#.W  . .H.P.K.<.#.%.H.F.%.;.<.-.<.,.<.-.-.",
"1.6.k.1.6.n.D.s.r.r.A.<.;.,.r.&.#.b.P.#.` -.a.l. .-.-.;.<.M.#.l.) ;.-.%.b.%.<.r.z.-.6.b.F.B.D.F.F.b.D.P.G.%.H.P.G.A.$.b.l.A.-.<.",
"E *.B.z.z.1.6.6.<.@.,.-.#.<.B.-.C.-.#.;.6.z.r.M.D.-.z.l. .@.b.;.;.-.s.A.-.%.*.5.<...-.;.;.F.F.H.b.F.H.H.F.H.r.b.F.F.V.-.~ -.-.8.",
"1.1.1.n.B.M.1.@.M.M.l.-.) r.z.z.z.-.@.-.r.-.z.` z.#.;.z.B.a.%.z.B.-.-.r.<.@.@.%.x.b.z.x.;.V.<.F.P.D.l.l.D.H.A.A.P.c.S.,.i.,.=.,.",
"P ( k.1.s.s.-.B.-.@.6.l.l.V.@.#.J.J.-.l.*.-.D.-.M.#.;.-.-.-.#.6.&.) l.r.#.z.z.r.@.-.z.z.z.F.-.#.-.z.F. .%.F.F.l.A.<.#.l.s.1.-.;.",
"3.V.6.k.-.k.M.6.r.;.r.z.@.r.-.l.o.o.6.1.6.-.;.M.@.r.-.~ -.k.@.-.;.-.-.-.~ @.-.;.#.-.z.` W b.D.z.<.<.H.H.b.<.a.-.F.F.b.b.6.M.-.-.",
"1.-.-.k.1.B.-.P &.C.@.-.B.6.%.F.-.*.*.@.-.) z.s.-.-.-.r.z.6.( #.z.-.1.*.;.;.%.6.z.@.-.M.;.6.%.;.F.a.x.H.A.F.G.#.b.A.;.l.-.@.-.! ",
"k.s.n.*.E M.V.s.;.l.-.s.*.-.D.! -.k.#.@.z.6.1.#.-.,.%. . .-.s.r.@.*.6.@.@.*.) @.;.6.z.-.@.l.) #.b.F.b.;.-.b.A.A.z.z.;.6.r.r.$.6.",
"1.) *.J.n.1.-.M.&.) M.s.1.r.<.-.s.#.r.s.@.;.r.@.) z.6.-.z.-.1.-.@.` 1.-.r.;.W ~ ;.%. .%.%.b.F.b.B.z.B.a.%.z.b.a.l.-.z.l.r.l.-.r.",
"1.n.f.@.6.f.6.1.M.s.&.` %.s.B.-.&.6.l.8.-.#.-.r.-.` o.6.*.) *.-.6.-.*.6.) #.1.6.8.#.%.h.z.<.l.z.B.z.l.;.%.<.F.A.c.b.a.-. .<.-.%.",
"@.6.1.) 6.3.B.1.@.1.3.0.k.~ *.-.6.3.) #.=. .1.8.-.~ o.6.#.;.*.1.` ! @.-.@.o.-.-.@.-.@. .#.@.%.%.l.b.b.,.a.F.%.h.A.@.a.b.h.-.-.=.",
"M.1.f.n.f.-.&.3.6.s.s.@.-.1.-.s.-.1.) ) s.1.-.-.1.1.6.*.-.` -.-.-.*.1.@.&.6.*.@.-.-.%.$.z.-.<.;.r.-.B.r.l.b.l.c.F.F.c.%.-. .%.,.",
"&.f.-.&.V.1.1.0.n.1.-.8.-.M.-.s.! ~ V.-.s.-.1.-.-.@.*.@.-.&.@.) o.-.1.&.o.-.&.&.-.` -.-.#.-.r.l.l.c.-.;.l.<.l.l.-.c.z. .<.a.-.-.",
"@.1.1.6.&.-.n.o.*.s.&.@.0.1.( -.1.&.-.*.~ ) &.-.*.) -.@.&.@.@.-.&.-.~ X.1.@.-.%./ &.r.` ) #.-.l.@.-.8.b.l.-.A.b.b.-.%.b.-.r.-.r.",
"-.-.@.n.-.-.1.@.o.6.3.1.*.-.6.-.-.-.@.-.&.-.&.1.-.*.-.6.~ @.*.&.%.-.! ) &.-.-.o.! ) $.-.-.r.h.-.-.-.z.*.-.b.-.) ..r.a.#.-.a.-. .",
"3.-.n.6.f.n.-.0.k.@.&.&.&.&.1.$.~ &.n.@.@.1.*.-.( ( P ~ -.-.*.o.` #.1.-.-. .! -.6.;.&.&.<.,.&.%.l.;.z.-.r.b.r.i.r.z.z.r.-.-.%.-.",
"o./ @.X.@.X.) X.@.~ ) &.@.&.@.) &.@.) &.&.@. .&.@.@.~ ` @.X.) E ) X.) T ! ~ W ) ) ) O.O.@.@.=.*.&.-.` %.#.$.&.&.-.1.-.&.! ` @.@.",
") ) @.@.@.@.O.&.@.$.&.&.-.&.&.&.-.=.&.( / @. . .o.=.&.&.@.L ) ) ) B ) ) &.&.) ( &.X.) @.@.&.@.X.&.&.$.E @.=.%.-.) ~ @.-.-.@.~ ) ",
"O.0.=.3.-.1.-.0.1.=.-.,.) @.z.-.@.-.,.&.r.r.-.&.=.,.-.-.=.-.-.) -.@.-.-.! -.O.O.0.) ) -.) =.-.$.1.0.6.-.=.s.=.1.&.X.-.s.-.-.&.) ",
"-.1.s.) ) &.-.3.=.) 8.-.@.-.8.-. .%.8.8.!  .r.8.$.@.-.) -.,.-.) =.-.=.-.! @.-.-.@.) @.=.&.@.-.h.X.E -.-.h.h.-.-.h.h.n.M.) O.r.-."
};
