/* XPM */
static char *fba40464047d42cdce3c11a1d5cb19d9ilM1iOaf3d4IY06C[] = {
/* columns rows colors chars-per-pixel */
"64 64 219 2 ",
"   c #1D1E19",
".  c #171914",
"X  c #10120D",
"o  c #26170A",
"O  c #231B16",
"+  c #311C09",
"@  c #1E211A",
"#  c #1A2016",
"$  c #23231D",
"%  c #2A251E",
"&  c #2B271B",
"*  c #3A2719",
"=  c #3E210B",
"-  c #1F2322",
";  c #252622",
":  c #2A2622",
">  c #252924",
",  c #2C2A25",
"<  c #2D2D2A",
"1  c #272D2D",
"2  c #322D25",
"3  c #322E2A",
"4  c #3C2E26",
"5  c #2E312A",
"6  c #2F3126",
"7  c #353126",
"8  c #33322D",
"9  c #3A342C",
"0  c #3B352A",
"q  c #2D3231",
"w  c #353532",
"e  c #3A3532",
"r  c #363934",
"t  c #3B3B35",
"y  c #353639",
"u  c #363A3A",
"i  c #3C3C3A",
"p  c #2A2F32",
"a  c #562C0B",
"s  c #4C2D16",
"d  c #4C301D",
"f  c #4F3014",
"g  c #553115",
"h  c #5A3418",
"j  c #4C280C",
"k  c #643919",
"l  c #42342B",
"z  c #4B3527",
"x  c #5B3A24",
"c  c #573727",
"v  c #423B34",
"b  c #423D3B",
"n  c #473A34",
"m  c #402D26",
"M  c #633E26",
"N  c #461D01",
"B  c #3E4036",
"V  c #3E413B",
"C  c #79431B",
"Z  c #42423D",
"A  c #47463E",
"S  c #5D4332",
"D  c #65422C",
"F  c #6B432B",
"G  c #6B4225",
"H  c #7B4D29",
"J  c #784925",
"K  c #654A3C",
"L  c #7E512B",
"P  c #3B3E41",
"I  c #383F49",
"U  c #433F40",
"Y  c #3E4143",
"T  c #3D464C",
"R  c #3F4C55",
"E  c #434443",
"W  c #4B4544",
"Q  c #454945",
"!  c #4A4C45",
"~  c #44464A",
"^  c #464B4B",
"/  c #4A4C4B",
"(  c #544A47",
")  c #4D514B",
"_  c #4E5147",
"`  c #52544C",
"'  c #54574C",
"]  c #4A4D51",
"[  c #444B55",
"{  c #4D5353",
"}  c #4E5559",
"|  c #525553",
" . c #555A54",
".. c #595B55",
"X. c #535659",
"o. c #545B5B",
"O. c #5A5E5B",
"+. c #5C625D",
"@. c #586059",
"#. c #61645D",
"$. c #7E6453",
"%. c #7D604E",
"&. c #565E61",
"*. c #575C61",
"=. c #5D6363",
"-. c #5F6864",
";. c #5F6669",
":. c #586363",
">. c #626664",
",. c #636A65",
"<. c #626669",
"1. c #646B6B",
"2. c #6A6D6B",
"3. c #6A6D66",
"4. c #6C726C",
"5. c #68716A",
"6. c #71746E",
"7. c #6A6E71",
"8. c #676F71",
"9. c #6C7373",
"0. c #6E7679",
"q. c #6C7675",
"w. c #737573",
"e. c #787673",
"r. c #747A75",
"t. c #7A7A76",
"y. c #727679",
"u. c #747C7C",
"i. c #7B7D7A",
"p. c #824C22",
"a. c #83522B",
"s. c #875327",
"d. c #955B29",
"f. c #846B5C",
"g. c #866146",
"h. c #8B7567",
"j. c #957967",
"k. c #886D61",
"l. c #A1744A",
"z. c #76817D",
"x. c #7C827C",
"c. c #788073",
"v. c #81837C",
"b. c #9F806E",
"n. c #767E81",
"m. c #7A7D81",
"M. c #778182",
"N. c #7B8384",
"B. c #7E8884",
"V. c #7D8689",
"C. c #7E898A",
"Z. c #818583",
"A. c #838A84",
"S. c #838B8D",
"D. c #86898A",
"F. c #86908F",
"G. c #8B938D",
"H. c #888E91",
"J. c #869192",
"K. c #8A9394",
"L. c #8E989B",
"P. c #8E969A",
"I. c #949494",
"U. c #959A94",
"Y. c #9C9A96",
"T. c #949699",
"R. c #939B9C",
"E. c #9B9B9B",
"W. c #99979C",
"Q. c #A19D9A",
"!. c #9CA29E",
"~. c #97A09F",
"^. c #939CA1",
"/. c #9C9DA1",
"(. c #A19FA3",
"). c #9CA3A4",
"_. c #9AA4A5",
"`. c #A3A3A4",
"'. c #A4A6A9",
"]. c #ACACAC",
"[. c #A7A9AA",
"{. c #B5AEAA",
"}. c #B3B2AD",
"|. c #ADAEB1",
" X c #A7AFB2",
".X c #B0ADB1",
"XX c #ADB3B7",
"oX c #B4B3B4",
"OX c #B9B6B4",
"+X c #B5B5BA",
"@X c #B9B6B9",
"#X c #B5B9BE",
"$X c #BCBBBC",
"%X c #BCB9B6",
"&X c #AEB0AD",
"*X c #BAAC9F",
"=X c #C2BEBD",
"-X c #C6BBB5",
";X c #C1B6AC",
":X c #C6C1BD",
">X c #BEBDC2",
",X c #B7BCC2",
"<X c #C2BFC2",
"1X c #BEC1C3",
"2X c #C3C2C4",
"3X c #CBC5C4",
"4X c #C4C4C9",
"5X c #C9C6CA",
"6X c #CCCBCD",
"7X c #CAC9C7",
"8X c #D1CDCD",
"9X c #CECDD1",
"0X c #D1CED3",
"qX c #CED1D8",
"wX c #D3D2D6",
"eX c #D5D4DA",
"rX c #D9D8DB",
"tX c #CED0CF",
"yX c #DCDBE2",
/* pixels */
"$X].[.&X}.oXoXoX}.oX}.&X{.&X&X.X].].].[.oX@X$X.X&XoXoXoX$X$X@X$X%X$X$X2X=X:X1X:X:X2X7X7X%XOX%XoXoXOXOXOXOX}.OXOX}.}.OXOX}.}.OX%X",
"&XS.N.0.2.0.w.y.y.y.n.u.u.n.n.m.V.N.V.S.G.oX|.y.7.7.u.u.r.r.r.r.i.i.i.i.x.i.v.x.v.U.3X$X,.' @.-.,.5.5.5.4.4.5.6.6.3.,. .#.x.x.&X",
"].S.5.@.@. .+.+.#.,.>.,.#.#.>.=.=.:.:.} 2.@X`.:.o.O.2.8.;.;.;.=.@.=.@.&.+.-.+.3.-.5.2XOXq B  .+.:.5.,.,.1.,.2.3.3.,.@.=.@.-.4.[.",
"oXN.+.N.F.B.B.B.Z.D.N.z.z.z.z.z.n.N.} p =.=X/.I ;.F.J.J.C.C.J.C.S.J.J.S.F.J.J.F.^ _ $XOX1 @.M.z.B.M.B.x.N.C.S.N.x.N.B.K.C.@.c.%X",
"|.V.@.L.u.] } ^ / | ^ ] / Y ~ ^ ^ *.;.Y *.>X/.I } o.{ ] } ^ ] [ ^ { ] { { { &.;.Q u 1X$XV @.Y T Y Y Y ^ ^ ^ { ^ ) } R B.L.@.C.,X",
"oXN.,.K.z.:.;.+.*.=.*.O.O.X.} o.o.{ O.T 7.<X/.[ o. .| { =.} o.o.o.:.} :.o.o.:.;.^ Y $X$XQ o.{ o.o.@.} :.:.=.;.=.+.-.-.z.G.-.A.oX",
"+Xu.r.R.M. .@.| / { { ) { ^ { { ] [ &.T 7.<X^.[ O.Q / Q ^ ~ ^ [ [ ] T ] ] ] } ;.} ^ 1X$X] } Y ~ ~ ^ ^ ] ] { { ^ } @.o.B.~.z.A.#X",
"].i.c.K.N.{ | V t ^ E E Y u ^ ^ ] q } ~ 7.>X^.[ 1.V y y Y y P u u P y Y Y I Y q. . .1X1X{ _ w Y r Q u ~ ~ ^ ] Y T :.} C.L.z.G.%X",
"].x.r.F.x.|  .{ Q / / / / ^ / E / ^ o.E 0.$XK.[ <.) W ~ ~ E ~ ^ ] ] E ^ ^ / { y.{ o.1X$X) { E Q ~ ] ] ] { { { { @.:.:.S.L.z.F.+X",
"&Xx.5.R.i.{ | | e Q i P E e ~ w E q o.Y 9.2XP.[ 7.X.P y ] P ~ P y ~ I ^ P y / u.{ =.:X1X{ ) 5 i w Q u ~ Y E [ u T :.O.N.R.5.G.oX",
"].x.4.K.z.+.@.V t V i i V i P y t q { V 9.:XI.[ 0.X.U ~ ^ i U P P E P Q ] P / u.] @.1X:X) ! < t w P P Q ~ Y ~ V Q =.@.A.K.5.U.+X",
"[.A.y.T.S.<.o.{ E ^ Q ~ | b / u Q Y  .V 9.2XP.T y.<.] ~ { ~ ] [ ~ ~ ~ ~ ] ~ *.N.] ,.1X2X! ) t i y / P | ~ ] ] Z } @.>.S.P.q.U.$X",
"[.Z.r.R.N.3.>.e i U e i i w y , r < ` V w.<XH.P 2.#.u U ] P ~ U y U P ~ ] y / Z.^ -.1X1X! ! ; 8 , i e Z i e b t t ,.,.u.K.6.U.OX",
"[.Z.r.K.u.3.-.) b / ~ Q / E Q w i t ) t w.2XH.p 1.>.U } [ ~ [ ~ U ~ U ] } U | Z.! +.1X:X_ _ w i y / ~ ] ~ Q ~ Z | #.2.N.F.4.U.+X",
"].x.c.L.y.2.,.Z t W Z ] ~ i ~ w i e | y 7.6XD.1 =.<.~ T ~ ~ ] ~ I ~ P / } U X.m.^  .1X2X| ) 5 V w Q u Q Q U Q 9 Z ,.3.z.U.r.G.$X",
"[.x.v.F.6.,.O.t y t t t t w b 8 w <  .~ 2.5XD.1 =.] 8 < w 3 p w q y p i y w U 7.Q @.%X:X! ! > r w b w v t t i t Z ,.5.x.K.x.G.OX",
"[.v.x.L.B.5.;.{ b { Q Q X.~ W t ^ Z @.r 2.6Xx.> =.>.P P [ P ~ ~ ~ | ~ ] ] ^ O.x.V @.$X2XQ ) t ~ e ~ e / E ! / b | 7.q.Z.K.x.~.%X",
"[.v.A.L.C.c.:.V r b e t E i w < i i =.i 2.9Xm.- #.X.w 3 w 8 q y < P w E P u Y y.Q ' $X4XA  .5 r 8 i w b B B Z t Q 1.0.F.^.Z.!.+X",
"`.c.4.z.z.8.-.5.2.,.<.2.2.>.1.2.w.2.4., 1.7XD.> / *.| X.*.>.>.=.=.=.=.>.2.1.5.z.r ,.$X2XB Q  .O.@.+.>.,.,.+.+. .O.O.;.4.q.5.!.oX",
"[.5.B 1 X . X . . X X X . . . @ $ ;   . t.2XT.Q   : 3 P E i i e w 3 8 5 < < r & _ U.+X7X! X   @ $ @ , Z B 8 8 7 8 7 8 5 V c.XXoX",
"$XQ.v.v.i.i.h.i.e.t.t.t.t.u.h.i.h.v.v.G.[.=X%XY./.(.(.(.Y.Q.W.(.W.Y.Y.Q.!.Y.Y.I.Y.[.5X8X$X[.&X|.oXoXoXOX$X$X%X$X$XOX%X%XOXoX+X%X",
">X2X5X7X8X6X6X9X8X6X0X9X6X9XqX9XqX6X0X2X>X$X2X9XqX<X<X0X<X0X0X<X9XwXwXwXqXwXeXeXqXqX7X6X7XtXtX6X9X9XtXtXtXtXtX6X6X6X8X3X7X:X:X1X",
"$X`.S.w.7.2.2.>.>.O.O.O.X.| | | *.X. .4.`.4XoXk.$.h.j.h.j.j.k.k.f.f.f.f.$.$.%.%.g.b.7X2X,.8 > $ , , 0 Z Z i Z Z Z A ! ! _ r.U.$X",
"].@.0 $           @     @   @ $ : > $ # e.qXh.N * m 4 * + O o O o o o * s * * + a p.:XoX> & > , 5 > w B w 8 6 7 7 , 6 5 8 _ A.oX",
"]._ 6 _ _ Z ) Z Q ! Q ! ! Z ) Q Q Q '   7.wXh.= n z c z d c d z c d c h M M c M s H 1XoX$ V t V r B A t A ! Z ' _ ' #...4.` x.=X",
"].! B  .r 5 r @ 6 @ , $ > $ ; , , : ! , 2.wXh.j x W U n e e e m 9 e 3 e e e 4 c f J :XoX$ B $ , & & 7 & 7 0 , ! 8 ! ` ! D.#.v.1X",
"]._ r  .0 r r ; w @ > ; , ; $ < , & _ 6 3.wXk.j M % : $ : O : : % , % 3 3 : , M f H 1XOX> V & 0 6 5 0 2 Z 0 , ! w / ..) G.,.A.:X",
"].Q B @.t y t @ 5 $ 5 $ 5 , 5 < 5 , ` 6 5.qXk.N M e < < 3 < p 4 , e : b e 3 l c f H 3XOX6 Q , 0 7 0 Z 7 v t 0 _ 0 ) ..` I.,.G.1X",
"].! B @.i t t > w ; p ; w < w w 8 5  .0 2.qXh.j c e 3 3 3 < 3 , , 3 : 9 9 3 4 c s H :X+X8 Q 7 8 6 0 0 > B Z 7 ' e ' O.' R.3.G.2X",
"|._ B +.V r i > q ; < ; w < w 5 < 5 ) 0 2.wXh.j c % : : 3 < y 3 w b e i b e n M f L 2XoX8 Q , 8 5 , w , t v 0 ' v | #. .R.5.G.<X",
"XX! B @.Q V V 8 w 8 u < ~ 3 U b i E  ./ t.qXj.a M U P P U e y e w U 8 U t e v x f L 2XoX0 Y 5 8 8 7 w , t t 0 ..e #.#.+._.4.U.4X",
"oX! r -.Q V V q q q u < b < u y u u  . .e.qXj.a M 3 : : 3 % 3 : , : 2 , 2 3 4 M g H :XoXr Q 6 w w 8 B 7 Z V 9 O.t ,.,.,.R.r.~.4X",
"&X! B +.! V E < r < w < i 3 i u y b O...e.eXj.a c v y y i e u e e U e U v e b M g L 2XoX8 Q < 5 r 2 t 8 Z Z 7 +.t 3.>.,._.r.!.2X",
"&X_ B 5.) Q Q u u u ~ r ] e ^ ~ W U w...e.0Xj.a M ( U e v 3 8 9 3 e 3 b b 3 n M h a.2X|.q ! 8 w i w t w i Z e o.V +.>.<._.z.).2X",
"|._ V 5._ Y ! 8 u 5 y 8 i 8 i t y i 6.O.e.0Xj.a K e e 3 e 3 3 3 3 w 3 e W b l M h L 2XoX5 Q 5 8 V 3 Z 8 t Q 8 =.t ,.>.2._.x.).4X",
"|.) A 5. .^ ) Z V E ^ V | Y X.{ { X.m.O.e.qXj.a K ] U U U P U i y U w U W ` ( M h a.$X].5 ) y w E 8 Z t i ! e =.i 2.3.9._.B.'.<X",
"|.@.) q.) Q ) u Y i Y i E w ~ i U X.h.*.m.0Xj.h M U n 3 9 4 l 9 m m 4 n n ( K M h a.1X]., / < < r , Z < i Z < =.y 2.>.4._.B.'.1X",
"|.+.` r. ./ | u ! V V V E t ] i / O.Z.*.m.qXj.k c l m l n m n l l n l c l n K M h a.=X[.> Q < u t w ^ 3 Q Z w -.w 7.>.q._.x.[.2X",
"}.#._ c.| `  .E ! / ] ) { / o.] O.2.Z.O.m.wXj.h M U U U b n b n v b l n n n n F h a.<X'.q @./ o.o.O.,.=.3.2.>.y.>.u.r.N._.z._.2X",
"].,.) r.,.1.4.1.4.w.q.u.0.y.u.y.u.D.D.t w.eXk.z M M M M F M F M F M M J M M F H k a.<X`.  { O.-.<.<.2.<.;.4.=.4.2.9.0.z.B.F._.1X",
"].4.#.! 0 r r i t w r r y r u r i E Z Q D.8Xf.k M d d d c d d d d s g g h c h k C d.=X].~ , r q r E V Q ! Q Z Z V V i i @.C.'.$X",
"oXS.t.#.@. .=.4.2.+.O.O.O.>.<.>.7.3.6.J.[.6Xj.k k k k p.C p.p.p.s.s.s.p.s.s.s.s.d.l.$X2XR.H.P.R.R.^././.)._._.)._._.`.E.R.K.|.2X",
"1X$X$X$X5X5X4X4X4X2X2X4X4X4X2X5X5X2X<X<X=X<X:X;X{.;X;X%X-X-X-X-X-X-X=X<X3X3X7X7X<X4X<X5XrXyXyXyXrXyXrXrXeXrXeXeXyXeXwXwXwXwX3X2X",
"2XoXXXoXoXoX.X|.].].'.`.'.`.`./.W.E././.$X<X-XQ.Z.Z.i.y.e.7.7.<.7.>.>.<.>.<.,...2./.5X>Xy.>.<.3.,.2.2.2.,.3.3.+.O.#.#.#...t.~.2X",
"{.@.B t V t V Z b i t t t t t t t V 8 $ I.wXD.& , 5 8 8 5 0 t i b i B V t i Z 8 , @.4XT.X $ < 8 r V Q Z Z Z A Z V r t t 7 B r.<X",
"`.' Z +...' _ ! ) ! A W A A Z i ! V  .8 I.wXh.% { o.X.} X.] | ! ~ W ~ E Q ! Q +.t ) 2XI.$ Q r t u b V Z Z Z Z V Z _ / #.4.` v.4X",
"`..._ t.2.` / 9 2 3 0 7 0 2 2 O : O / 0 U.wXN.> ` E Z t b e n w v 9 3 3 3 3 w ' t @.5XY.$ r O : $ 2 7 0 2 9 7 , 9 ! ! 3.r.' i.2X",
"!..._ ,.#...) Z w 8 3 8 8 7 8 < 8 > ! t I.eXi.% ! 8 9 9 i e v e b e e e t 9 V +.V >.5XE., t > < , 0 3 8 3 8 8 8 E  . .9.r. .i.4X",
"`..._ r.>.` ! 2 , 3 , 3 2 , 2 : , : / t I.rXt.% O./ / ~ / b Q i W i b e b t t o.Z ,.4XE., E > , , 7 < 2 3 , w 2 3 ^ ! >.u...r.4X",
"`.' _ r.y.+.O.Z < < < , , : : : : ; ! t I.wXt.& | i l e v 9 v 9 9 9 e 9 e e t  .Z >.4XE.< E O : : , : , : < 3 , Z O.+.r.u...r.2X",
"`.` ' r.5.O./ 0 3 w 3 3 3 3 3 < : < ) t E.rXe., | Q W / ( ~ W E Q b E E Q b Z >.Z ..4X/.< Y , , , < , < 3 3 w 8 i | +.y.i...x.4X",
"`.! ..Z.9.O. .w < 2 , , , : : : : > ! t Y.wXe.2 *.] W b b b n e t 9 e 9 9 0 e O.Z  .<X/.6 Q % ; $ , : , , , , , 8 | O.6.N.O.z.1X",
"`._ _ x.t.<.*.! U U P i i i u e e w ! V Y.eXe.3  .v n b Z b A b Z Z Z Z b Z Q ,.B O.2XE.5 Z 5 w w w y t e u i i / ;.#.N.M. .w.$X",
"`.A / N.2.O.| , , 3 : 3 , , : , , , { t I.wXe.2 >.X.X.` | / / W W W W E Z W Z 2.Z O.2X/.5 ! 8 8 3 3 8 8 e 3 9 3 9  .+.9.N...y.$X",
"!._ _ B.,.+.=.^ Q Q Q U E u U y w w ) t W.eX6.2 O.Q b e v v v e e e e e e y i >.t O.4XE.8 ^ : < < 3 3 w w e u t E =.O.u.S...e.,X",
"(._ ' N.>.1.=.! / / ! / W / / ~ Q E { i E.rX6.< O.| ..O.O.*.=.=.=.>.=.,.>.>.-.r.t >.<X(.5 { ~ / ] | { | | | | |  .=.4.N.S.>.w.,X",
"`.! _ V.8.+.) i e u y e w 8 w < 5 5 o.i U.eXw.2 <.X.] W W U U P U b i e b i e =.Z ,.>X`.r ) , < , 8 < 3 3 3 8 5 w { } 0.S.3.r.$X",
").` ! z.C.N.u.n.u.u.u.0.0.8.8.2.;.=.o.V ).eX6.2 #.....O.O.*.<.;.<.<.<.<.1.9.9.y.V >.2X'.r o.} O.=.=.-.7.8.8.9.9.q.q.n.J.J.4.r.+X",
"`.' ! N.u.;.o.{ ] | / | ) ] { ! ^ ^ { A `.wXe.8 <.<.1.7.7.7.8.7.7.7.7.7.8.8.1.n.B -.2X'.w o.} X.o.o.o.*.O.O.=.o.O.=.9.M.J.q.x.#X",
"`...) D.n.0.0.0.0.y.0.9.8.8.8.;.:.:.-.V T.eX6.2 2.<.<.<.<.*.;.;.<.<.<.8.<.8.7.u.Z +.$X'.5 o.{ { o.O.*.*.=.:.>.<.1.8.0.V.J.,.i.$X",
"Q.+.#.w.u.N.D.V.N.V.M.M.M.M.n.u.q.8.o.1 I.wXr.t 7.V.S.H.J.P.L.P.L.L.L.^.^.L.^.P.#.>.+X].5 :.0.n.n.N.V.V.C.J.V.C.C.C.J.H.N.c.z.#X",
"`.4.4.5.4.9.9.3.;.@. .{ O.=.+.;.+.o.o.:.`.6XI.@.=.>.>.1.8.n.n.8.n.n.n.n.n.n.N.z.J.C.|.oX^ ^ { } o. .{ ] ^ ! ) { o.+.=.2.,.M.J.[.",
").u.B.,.1.0.u.0.0.M.M.M.M.M.J.J.S.K.R.^.oX5X/.C.0.9.u.n.n.V.V.C.C.P.P.J.J.J.K.K._. X+X+XM.0.8.n.C.C.C.V.N.V.N.M.u.u.N.V.M.K._.].",
"+X'. X'. XXXXX#XXX#X#X#X#X#X,X#X#X,X,X|.$X<X,X,X,X,X1X1X>X1X1X4X4X1X5X4X1X1X>X#X#X1X:X4XXX#X1X4X4X4X4X1X4X4X4X>X>X1X>X$X,XoXXX>X"
};
